<?xml version="1.0" encoding="UTF-8" standalone="no"?>
<!-- Created with Inkscape (http://www.inkscape.org/) -->

<svg
   width="1024"
   height="1024"
   viewBox="0 0 270.93333 270.93334"
   version="1.1"
   id="svg6854"
   inkscape:version="1.1 (c68e22c387, 2021-05-23)"
   sodipodi:docname="emblem01.svg"
   inkscape:export-filename="C:\Panda3D-1.10.10-x64\samples\soul-symphony2\NPCs\emblems\emblem00.png"
   inkscape:export-xdpi="96.036201"
   inkscape:export-ydpi="96.036201"
   xmlns:inkscape="http://www.inkscape.org/namespaces/inkscape"
   xmlns:sodipodi="http://sodipodi.sourceforge.net/DTD/sodipodi-0.dtd"
   xmlns:xlink="http://www.w3.org/1999/xlink"
   xmlns="http://www.w3.org/2000/svg"
   xmlns:svg="http://www.w3.org/2000/svg">
  <sodipodi:namedview
     id="namedview6856"
     pagecolor="#ffffff"
     bordercolor="#999999"
     borderopacity="1"
     inkscape:pageshadow="0"
     inkscape:pageopacity="0"
     inkscape:pagecheckerboard="0"
     inkscape:document-units="mm"
     showgrid="false"
     units="px"
     showguides="false"
     inkscape:zoom="0.36703143"
     inkscape:cx="1290.0803"
     inkscape:cy="663.43093"
     inkscape:window-width="1920"
     inkscape:window-height="1009"
     inkscape:window-x="-8"
     inkscape:window-y="-8"
     inkscape:window-maximized="1"
     inkscape:current-layer="layer1" />
  <defs
     id="defs6851">
    <linearGradient
       inkscape:collect="always"
       id="linearGradient10350">
      <stop
         style="stop-color:#000000;stop-opacity:1;"
         offset="0"
         id="stop10346" />
      <stop
         style="stop-color:#000000;stop-opacity:1"
         offset="1"
         id="stop10348" />
    </linearGradient>
    <linearGradient
       inkscape:collect="always"
       id="linearGradient10090">
      <stop
         style="stop-color:#0000ff;stop-opacity:1"
         offset="0"
         id="stop10086" />
      <stop
         style="stop-color:#ff0000;stop-opacity:1"
         offset="1"
         id="stop10088" />
    </linearGradient>
    <radialGradient
       inkscape:collect="always"
       xlink:href="#linearGradient10090"
       id="radialGradient10092"
       cx="135.46667"
       cy="135.46667"
       fx="135.46667"
       fy="135.46667"
       r="106.84867"
       gradientTransform="matrix(0.31847149,0.03524416,-0.02053885,0.18559211,95.106734,105.55072)"
       gradientUnits="userSpaceOnUse"
       spreadMethod="reflect" />
    <linearGradient
       inkscape:collect="always"
       xlink:href="#linearGradient10350"
       id="linearGradient10352"
       x1="103.47615"
       y1="82.577026"
       x2="169.49493"
       y2="139.23247"
       gradientUnits="userSpaceOnUse" />
  </defs>
  <g
     inkscape:label="レイヤー 1"
     inkscape:groupmode="layer"
     id="layer1">
    <path
       style="fill:url(#linearGradient10352);stroke-width:2.64583333;stroke:url(#radialGradient10092);stroke-miterlimit:4;stroke-dasharray:none;paint-order:stroke fill markers;fill-opacity:1"
       d="m 134.63596,250.33418 c -0.24689,-0.39879 -2.59553,-4.51579 -5.21921,-9.1489 l -4.77031,-8.42382 -1.95836,-0.21964 c -12.58268,-1.41121 -26.455193,-5.85495 -38.211853,-12.24027 -13.21934,-7.17974 -25.46018,-17.84118 -34.64505,-30.17489 -21.87463,-29.37391 -27.10986,-68.02285 -13.84037,-102.176216 0.94004,-2.4195 1.93483,-4.83547 2.21064,-5.36883 l 0.50147,-0.96974 -5.11364,-8.97144 c -2.81251,-4.934297 -5.04866,-9.080204 -4.96923,-9.213133 0.0794,-0.132929 4.81446,-0.24169 10.5223,-0.24169 h 10.3779 l 1.43269,-1.852956 c 17.86275,-23.102541 43.85752,-37.663791 73.321573,-41.071852 4.47569,-0.517697 18.29055,-0.515006 22.55772,0.0044 21.57863,2.626553 39.53664,10.123794 56.07206,23.409376 5.81338,4.670828 13.13296,12.174694 17.22441,17.658081 l 1.38259,1.852956 h 10.05855 c 5.5322,0 10.1473,0.08875 10.25577,0.197219 0.21067,0.21067 0.20484,0.22153 -5.77176,10.748729 l -3.92742,6.91778 0.64648,1.2672 c 0.98489,1.93054 3.94695,9.68572 4.89705,12.8213 6.88777,22.731496 6.08982,47.573736 -2.21871,69.074166 -12.87539,33.31833 -40.41216,57.70033 -74.601,66.05431 -3.59488,0.8784 -12.45066,2.4245 -13.88712,2.4245 -0.7771,0 -1.17115,0.55576 -4.16994,5.88112 -5.29489,9.40287 -7.12982,12.48731 -7.42868,12.48731 -0.15381,0 -0.48166,-0.32628 -0.72855,-0.72507 z m 4.38214,-10.83905 c 1.90504,-3.34719 3.46368,-6.13871 3.46363,-6.20337 -5e-5,-0.0647 -3.23061,-0.11756 -7.17903,-0.11756 h -7.17895 l 2.92334,5.15605 c 3.78986,6.68438 4.12841,7.2507 4.33458,7.2507 0.095,0 1.73139,-2.73862 3.63643,-6.08582 z m 3.21295,-9.26925 2.16613,-0.20459 4.52062,-7.98265 c 2.48634,-4.39045 4.52062,-8.03786 4.52062,-8.10535 0,-0.0675 -1.48639,0.12445 -3.30309,0.42654 -9.81344,1.6318 -19.81975,1.62423 -29.56674,-0.0224 -1.86101,-0.31439 -3.40323,-0.55515 -3.42715,-0.53503 -0.0239,0.0201 2.02609,3.66193 4.5556,8.09291 l 4.5991,8.05633 1.72833,0.18917 c 2.47798,0.27121 11.65391,0.32614 14.20658,0.085 z m -24.15572,-8.97424 -4.75743,-8.31567 -5.15605,-1.68223 c -15.326263,-5.00039 -28.278573,-13.3779 -38.729123,-25.04987 -12.19278,-13.61783 -19.54048,-29.40962 -22.22771,-47.77212 -0.42457,-2.90114 -0.56343,-5.87932 -0.55595,-11.92337 0.0111,-8.96508 0.50613,-13.33192 2.37041,-20.91028 l 0.99803,-4.05704 -4.71444,-8.301676 c -2.59294,-4.56592 -4.77131,-8.36022 -4.84081,-8.43178 -0.20795,-0.21408 -1.5677,3.07997 -3.14286,7.61369 -6.77295,19.494326 -7.49703,41.672876 -2.01372,61.679876 6.16112,22.48014 19.94336,42.40923 39.01958,56.42223 11.138,8.18175 24.32482,14.19926 37.871323,17.28173 3.81644,0.86842 10.31455,1.99076 10.55142,1.82242 0.0466,-0.0331 -2.05608,-3.80229 -4.67267,-8.37591 z m 35.20197,7.68893 c 1.59515,-0.25758 4.95284,-0.97006 7.46154,-1.58328 35.67401,-8.72021 64.50713,-36.54971 74.75493,-72.15288 4.08301,-14.18527 5.042,-30.41555 2.67617,-45.29207 -1.20787,-7.59516 -3.92388,-17.177476 -6.73958,-23.777796 l -0.91015,-2.13348 -0.85454,1.43508 c -0.47,0.78929 -2.66683,4.62539 -4.88185,8.52465 -2.96915,5.22684 -3.99017,7.301246 -3.88601,7.895206 0.0777,0.44311 0.58747,2.69082 1.13281,4.99493 1.66464,7.03323 2.11719,11.31415 2.11213,19.9797 -0.005,8.2744 -0.39866,12.16724 -1.92349,19.01294 -6.14807,27.60149 -25.23267,50.87274 -51.02826,62.22249 -3.27822,1.44238 -12.46517,4.64506 -13.32445,4.64506 -0.32586,0 -9.90643,16.34364 -9.90643,16.89953 0,0.15357 0.98537,0.0294 5.31718,-0.67008 z m -5.15605,-17.16594 c 2.30411,-0.35901 4.91436,-0.83897 5.80055,-1.06658 l 1.61127,-0.41383 3.40897,-5.96169 c 1.87494,-3.27892 5.01051,-8.78945 6.96793,-12.24562 6.26544,-11.06269 11.72635,-20.68389 13.83552,-24.37582 1.12817,-1.97476 2.05122,-3.70238 2.05122,-3.83915 0,-0.23721 -92.492533,0.0774 -92.730543,0.31538 -0.063,0.063 2.88699,5.38729 6.55545,11.83183 3.66847,6.44454 9.057613,15.92275 11.975883,21.06269 2.91826,5.13994 5.81591,10.23084 6.43922,11.31311 l 1.1333,1.96777 2.4576,0.528 c 2.37715,0.51072 8.02196,1.3412 10.99731,1.61795 3.68085,0.34237 15.42597,-0.0998 19.49632,-0.73404 z m 18.06885,-4.70616 c 15.85744,-5.87254 30.82066,-17.85104 40.76986,-32.63749 2.76935,-4.11578 2.9083,-4.40117 2.34436,-4.81496 -0.32971,-0.24192 -2.63808,-1.66556 -5.12972,-3.16363 l -4.53025,-2.72376 -7.23199,0.006 -7.23199,0.006 -6.12281,10.83411 c -7.15901,12.66761 -11.60454,20.5197 -16.31822,28.82269 l -3.40241,5.99322 1.82665,-0.56852 c 1.00466,-0.31269 3.26659,-1.10178 5.02652,-1.75354 z m -55.54697,1.05054 c -0.34798,-0.57603 -1.32507,-2.27994 -2.1713,-3.78648 -0.84623,-1.50653 -5.62352,-9.91734 -10.616213,-18.69068 -4.99268,-8.77335 -9.79173,-17.21945 -10.66456,-18.76913 l -1.58694,-2.81758 -7.46326,-0.002 -7.46325,-0.002 -4.86293,2.76471 c -2.67461,1.5206 -4.86293,2.89548 -4.86293,3.0553 0,0.15983 1.3006,2.21478 2.89023,4.56655 10.4054,15.39427 25.22086,27.07683 41.902973,33.0421 5.80371,2.07532 5.76231,2.06992 4.89818,0.63947 z m 101.25373,-41.89292 c 2.14065,-3.65431 5.489,-12.6422 7.11309,-19.0935 1.70978,-6.79171 2.2245,-11.53616 2.22,-20.46308 -0.004,-8.57801 -0.2726,-11.37131 -1.78396,-18.57418 l -0.70501,-3.35995 -0.55162,0.89665 c -0.30339,0.49316 -3.41735,5.97214 -6.91991,12.17551 -3.50257,6.20338 -8.64651,15.27151 -11.431,20.15142 -2.78448,4.8799 -5.30355,9.33832 -5.59794,9.9076 -0.63269,1.2235 -0.85419,0.72114 3.79676,8.61137 l 3.03927,5.15605 4.78091,2.95295 c 2.62951,1.62412 4.88357,2.9655 5.00903,2.98084 0.12545,0.0153 0.58913,-0.58841 1.03038,-1.34168 z M 64.762277,164.52418 c 2.80119,-1.58435 5.11928,-3.12046 5.47086,-3.62535 0.33555,-0.48186 2.02425,-3.30753 3.75267,-6.27927 l 3.1426,-5.40315 -3.51936,-6.19796 c -1.93564,-3.40888 -7.56933,-13.32448 -12.51931,-22.03466 l -8.99996,-15.83669 -0.55878,2.14093 c -1.39562,5.34719 -1.97213,10.85855 -1.99368,19.05922 -0.0259,9.86467 0.68604,15.3939 3.07061,23.84674 1.73407,6.14695 6.22586,17.07942 7.01737,17.07942 0.15191,0 2.46355,-1.23715 5.13698,-2.74923 z m 17.73919,-5.87104 c -0.75647,-1.3736 -1.90893,-3.41969 -2.56102,-4.54685 l -1.18562,-2.04939 -1.76312,3.01615 c -0.96972,1.65888 -2.16142,3.70496 -2.64823,4.54685 l -0.8851,1.5307 h 5.20924 5.20925 z m 67.329633,2.28319 33.88079,-0.21427 3.2317,-5.72503 c 1.77744,-3.14877 3.2317,-5.88517 3.2317,-6.08089 0,-0.19572 -2.77841,-5.10001 -6.17426,-10.89843 -3.39584,-5.79841 -9.39099,-16.0531 -13.32255,-22.78819 -3.93156,-6.73509 -9.35829,-16.015996 -12.0594,-20.624216 -2.70111,-4.60822 -7.54575,-12.90997 -10.76587,-18.44834 l -5.85478,-10.069746 -6.7159,0.0799 -6.71591,0.0799 -18.52798,31.903066 C 99.848247,115.69679 89.057837,134.27852 86.059927,139.44285 c -2.99791,5.16433 -5.45074,9.5709 -5.45074,9.79239 0,0.2215 1.47748,2.99306 3.28328,6.15904 l 3.28328,5.75632 h 14.387283 c 7.91301,0 29.63364,-0.0964 48.26807,-0.21427 z m 47.34066,-0.34967 c -0.0721,-0.13293 -1.2592,-2.17029 -2.63794,-4.52747 l -2.50679,-4.28579 -2.08261,3.64128 c -1.14543,2.0027 -2.29087,4.04006 -2.54541,4.52747 l -0.4628,0.8862 h 5.18334 c 2.85084,0 5.12434,-0.10876 5.05221,-0.24169 z M 88.338057,129.89204 c 3.85673,-6.64647 10.89152,-18.75514 15.632893,-26.90814 4.74136,-8.153026 11.01431,-18.956566 13.93989,-24.007876 2.92557,-5.05132 5.7988,-9.981799 6.38493,-10.956615 l 1.0657,-1.772392 -25.502513,-0.08252 -25.50253,-0.08252 -1.24867,1.210406 c -5.61989,5.447651 -13.16999,16.769071 -16.65799,24.978751 -1.34449,3.16454 -3.2321,8.367016 -3.2321,8.908066 0,0.16015 1.35389,2.66192 3.00865,5.55948 1.65476,2.89757 6.38503,11.21388 10.51171,18.48069 4.12668,7.26681 8.5232,14.99684 9.77005,17.17784 l 2.26699,3.96547 1.27538,-2.19307 c 0.70146,-1.20619 4.43088,-7.6311 8.28761,-14.27757 z m 113.779363,-1.61127 c 5.37286,-9.4823 11.04733,-19.50944 12.60992,-22.28253 l 2.84109,-5.04199 -1.12691,-3.237536 c -3.71859,-10.68322 -10.0669,-21.12392 -18.00516,-29.612016 l -1.8899,-2.020808 h -25.58218 c -14.07021,0 -25.58219,0.112747 -25.58219,0.250549 0,0.137805 0.19951,0.536593 0.44335,0.886196 0.24385,0.349606 2.00352,3.318406 3.91039,6.597329 1.90687,3.27893 4.66253,7.99188 6.1237,10.47323 1.46116,2.48135 5.95789,10.16709 9.99273,17.079426 4.03484,6.91234 10.60321,18.15092 14.59638,24.97463 3.99317,6.82372 8.20608,14.03886 9.36202,16.03365 1.15594,1.99479 2.19986,3.51743 2.31982,3.38365 0.11995,-0.13377 4.61408,-8.00148 9.98694,-17.48378 z M 52.730887,93.960794 c 3.40037,-8.79706 9.91398,-19.43139 15.94123,-26.02616 l 1.68964,-1.848744 h -9.6968 -9.6968 l -1.11861,1.530703 c -1.49273,2.042644 -5.66308,9.060271 -6.96049,11.712741 l -1.03976,2.12571 4.61065,8.11593 c 2.53586,4.46376 4.70395,8.00262 4.81798,7.86414 0.11404,-0.13848 0.76787,-1.70193 1.45296,-3.47432 z m 171.441463,-4.59281 c 2.48098,-4.38629 4.51027,-8.26509 4.50952,-8.61957 -0.002,-0.87562 -3.55583,-7.3308 -6.20972,-11.278865 l -2.16618,-3.222532 -9.94593,-0.08527 -9.94593,-0.08527 1.70413,1.857664 c 6.08569,6.634003 13.03412,18.107443 16.29657,26.909363 0.50842,1.37168 0.99691,2.49523 1.08552,2.49676 0.0886,0.002 2.19103,-3.58599 4.67202,-7.97227 z M 41.762677,75.431234 c 0.93856,-1.81066 3.16813,-5.478731 5.14173,-8.459148 l 0.58683,-0.886196 h -7.13797 -7.13798 l 0.37562,0.72507 c 0.2066,0.398788 1.75363,3.167665 3.43785,6.153054 2.19932,3.89844 3.14478,5.30596 3.35519,4.99493 0.16113,-0.23818 0.78156,-1.37565 1.37873,-2.52771 z m 192.377653,-3.63394 c 1.69616,-2.973479 3.08393,-5.47497 3.08393,-5.558865 0,-0.0839 -3.06298,-0.152539 -6.80662,-0.152539 h -6.80662 l 0.50672,0.72507 c 0.85939,1.229683 4.57569,7.397764 5.53871,9.192794 0.50174,0.93521 1.02199,1.58778 1.1561,1.45013 0.13411,-0.13764 1.63161,-2.6831 3.32778,-5.65659 z M 75.134137,61.332655 c 13.74114,-12.526357 30.249343,-20.277391 48.673873,-22.853653 5.55539,-0.776799 17.61308,-0.776799 23.16847,0 18.36184,2.567497 35.42799,10.556096 48.44147,22.67526 l 2.18125,2.031349 h 10.18439 c 9.64903,0 10.16171,-0.02965 9.75273,-0.563943 -2.17754,-2.844848 -5.54704,-6.645255 -8.50001,-9.587034 -16.63883,-16.575776 -37.02217,-26.566707 -60.59281,-29.699677 -5.85647,-0.778432 -19.92379,-0.778432 -25.78026,0 -18.63721,2.477226 -35.491173,9.3566 -50.052233,20.430092 -6.85161,5.210561 -14.1332,12.421228 -19.04208,18.856619 -0.4075,0.534209 0.0961,0.563943 9.55119,0.563943 h 9.98137 z m 55.343743,-3.924258 3.3031,-5.750112 v -5.553693 -5.553693 l -3.46423,0.22435 c -7.76864,0.503108 -14.47752,1.76809 -21.53763,4.060993 -11.505343,3.736568 -20.281673,8.769609 -30.712043,17.612711 l -0.84155,0.713478 24.974633,-0.0019 24.97463,-0.0019 3.30309,-5.750115 z m 9.17089,4.729891 c -0.3464,-0.576028 -1.46011,-2.471099 -2.47491,-4.21127 -1.0148,-1.740167 -1.88624,-3.117799 -1.93653,-3.061405 -0.24493,0.274621 -4.39495,7.40039 -4.55911,7.828188 -0.16409,0.427608 0.45021,0.49181 4.70583,0.49181 h 4.89456 z m 52.15926,-0.48338 c -13.96155,-12.2832 -32.21836,-19.686646 -51.50143,-20.8847 l -3.62534,-0.225242 v 5.502229 5.502226 l 3.41745,5.818095 3.41746,5.818095 h 25.01585 25.01586 z"
       id="path9986" />
  </g>
</svg>
