<?xml version="1.0" encoding="UTF-8" standalone="no"?>
<!-- Created with Inkscape (http://www.inkscape.org/) -->

<svg
   width="1024"
   height="1024"
   viewBox="0 0 270.93333 270.93334"
   version="1.1"
   id="svg6854"
   inkscape:version="1.1 (c68e22c387, 2021-05-23)"
   sodipodi:docname="emblem00.svg"
   xmlns:inkscape="http://www.inkscape.org/namespaces/inkscape"
   xmlns:sodipodi="http://sodipodi.sourceforge.net/DTD/sodipodi-0.dtd"
   xmlns:xlink="http://www.w3.org/1999/xlink"
   xmlns="http://www.w3.org/2000/svg"
   xmlns:svg="http://www.w3.org/2000/svg">
  <sodipodi:namedview
     id="namedview6856"
     pagecolor="#ffffff"
     bordercolor="#999999"
     borderopacity="1"
     inkscape:pageshadow="0"
     inkscape:pageopacity="0"
     inkscape:pagecheckerboard="0"
     inkscape:document-units="mm"
     showgrid="false"
     units="px"
     showguides="false"
     inkscape:zoom="0.73406285"
     inkscape:cx="485.65324"
     inkscape:cy="575.56379"
     inkscape:window-width="1920"
     inkscape:window-height="1009"
     inkscape:window-x="-8"
     inkscape:window-y="-8"
     inkscape:window-maximized="1"
     inkscape:current-layer="layer1" />
  <defs
     id="defs6851">
    <linearGradient
       inkscape:collect="always"
       id="linearGradient9401">
      <stop
         style="stop-color:#ff00ff;stop-opacity:1"
         offset="0"
         id="stop9397" />
      <stop
         style="stop-color:#00ffff;stop-opacity:1"
         offset="1"
         id="stop9399" />
    </linearGradient>
    <radialGradient
       inkscape:collect="always"
       xlink:href="#linearGradient9401"
       id="radialGradient9437"
       cx="135.17186"
       cy="130.4232"
       fx="135.17186"
       fy="130.4232"
       r="119.62647"
       gradientTransform="matrix(0.33101476,0,0,0.32860113,90.427979,87.565991)"
       gradientUnits="userSpaceOnUse"
       spreadMethod="reflect" />
  </defs>
  <g
     inkscape:label="レイヤー 1"
     inkscape:groupmode="layer"
     id="layer1">
    <path
       style="fill:#000000;stroke-width:2.64583333;stroke:url(#radialGradient9437);stroke-miterlimit:4;stroke-dasharray:none;paint-order:stroke fill markers"
       d="M 124.29192,249.47174 C 73.184396,244.42946 31.102647,208.25388 19.056137,159.0058 16.389861,148.10564 15.766539,142.51821 15.803574,129.84994 15.833064,119.76265 16.007745,117.33568 17.182907,110.68598 21.671949,85.284595 32.81269,63.687302 50.604322,45.895669 68.359303,28.140688 90.061403,16.946559 115.39464,12.47627 c 6.6268,-1.169361 9.1114,-1.349133 19.16396,-1.386595 12.96006,-0.0483 18.5746,0.605946 30.03003,3.4993 36.85257,9.308033 67.60078,36.317128 81.54366,71.627583 13.78851,34.919542 10.48315,74.365752 -8.90397,106.260122 -9.42903,15.51201 -24.53098,30.61395 -40.04298,40.04299 -13.1563,7.9971 -29.38609,13.83197 -44.91672,16.14827 -6.6102,0.98587 -21.72859,1.42024 -27.9767,0.8038 z m -2.79022,-13.84186 -10.69954,-10.70865 -5.96013,-1.89743 C 75.269876,213.60941 51.19819,189.14702 41.913207,159.07358 L 40.554819,154.67386 29.825745,143.9539 c -5.90099,-5.89597 -10.816648,-10.6151 -10.923684,-10.48695 -0.330993,0.39628 0.624431,10.24088 1.492282,15.37635 4.490778,26.57396 18.411646,51.79306 37.84836,68.56626 16.97488,14.64872 36.595632,23.89959 58.741917,27.69587 4.68421,0.80297 14.5289,1.72196 14.98363,1.39872 0.12815,-0.0911 -4.58179,-4.98451 -10.46655,-10.87427 z m 23.60861,10.52669 c 1.99194,-0.15496 5.68794,-0.63896 8.21334,-1.07555 50.30622,-8.69693 87.92518,-46.33716 96.47825,-96.53279 0.87387,-5.12853 1.72779,-15.10495 1.29289,-15.10495 -0.15138,0 -5.06693,4.79578 -10.92346,10.6573 -10.54876,10.55773 -10.65723,10.68877 -11.61159,14.02597 -6.65407,23.26807 -23.50793,44.47798 -45.21696,56.90377 -5.83961,3.34246 -15.93402,7.67902 -20.88331,8.97146 -2.84578,0.74314 -3.33086,1.15029 -13.62917,11.43984 -5.8731,5.86811 -10.67836,10.81921 -10.67836,11.00245 0,0.18324 0.75075,0.2569 1.66833,0.1637 0.91759,-0.0932 3.2981,-0.29624 5.29004,-0.4512 z m -0.79286,-10.87533 8.97784,-9.04217 -2.31001,0.3549 c -10.80327,1.65976 -20.76217,1.65198 -32.08337,-0.0251 -2.04218,-0.30252 -2.00458,-0.25514 6.92451,8.72517 4.93781,4.96616 9.09829,9.02937 9.24551,9.02937 0.14722,0 4.3077,-4.06898 9.24552,-9.04217 z m 0.53491,-10.19089 c 12.13087,-1.41902 9.15601,0.55971 28.99616,-19.28688 l 17.42781,-17.43346 H 135.07004 78.863737 l 17.458533,17.45853 17.45854,17.45853 4.14401,0.7816 c 9.65089,1.82024 17.54151,2.11963 26.92754,1.02168 z M 75.80246,189.93061 C 58.593172,172.71959 44.438989,158.7117 44.348721,158.80197 c -0.23329,0.23328 2.570728,7.64431 4.389462,11.60135 8.963052,19.50103 25.38972,36.21848 44.753697,45.54592 3.977563,1.91595 12.18665,5.20914 13.08844,5.25061 0.28147,0.0129 -13.568571,-14.05822 -30.77786,-31.26924 z m 91.95949,29.79754 c 6.10205,-2.2734 9.70171,-3.97167 15.05004,-7.10042 16.26976,-9.51776 28.79967,-22.82275 37.16414,-39.46304 2.63552,-5.24311 6.18288,-13.99885 5.81901,-14.36272 -0.0903,-0.0903 -14.24445,13.91762 -31.45374,31.12864 -17.20929,17.21102 -31.13283,31.29277 -30.94121,31.29277 0.19162,0 2.15441,-0.67285 4.36176,-1.49523 z M 77.065195,130.23588 V 74.155084 L 59.57309,91.647189 42.08098,109.1393 l -1.068824,5.86365 c -1.497565,8.21575 -1.493224,22.39891 0.0094,30.7184 l 1.058656,5.8614 17.361326,17.36696 c 9.548731,9.55183 17.420352,17.36696 17.492491,17.36696 0.07214,0 0.131167,-25.23636 0.131166,-56.08079 z m 113.960135,0.12739 V 74.409878 h -55.9534 -55.953399 v 55.953392 55.9534 h 55.953399 55.9534 z m 37.47241,18.77428 c 2.2529,-10.50493 2.44984,-23.24391 0.53167,-34.39038 l -0.96475,-5.60609 -17.493,-17.492998 -17.493,-17.492998 v 56.206296 56.2063 l 17.43347,-17.42782 c 16.81693,-16.81146 17.453,-17.51886 17.98561,-20.00231 z M 38.591172,144.67232 c -1.307172,-8.0654 -1.17342,-21.81889 0.298903,-30.73573 0.276168,-1.67256 -0.33624,-1.16738 -8.865486,7.31316 l -9.162147,9.10983 8.95556,8.96654 c 4.925558,4.9316 9.033853,8.88825 9.129544,8.79256 0.09569,-0.0957 -0.06468,-1.64655 -0.356374,-3.44636 z M 240.1236,121.2516 c -8.54052,-8.49406 -9.14179,-8.9899 -8.87056,-7.31501 0.16003,0.98817 0.57326,5.08842 0.9183,9.11168 0.59455,6.93258 0.2151,16.74285 -0.9183,23.74169 -0.27123,1.67489 0.33004,1.17905 8.87056,-7.31501 l 9.16152,-9.11168 z m -210.196718,-4.62001 10.602586,-10.65168 2.04571,-6.18516 C 52.418195,70.034594 75.769017,46.932075 105.55523,37.484408 l 5.13334,-1.628205 10.65168,-10.62028 c 5.85842,-5.841153 10.65168,-10.74413 10.65168,-10.895503 0,-0.443249 -9.94589,0.420897 -15.32739,1.331717 -23.93185,4.050468 -46.958844,15.82418 -63.709206,32.574543 -16.87731,16.87731 -28.493378,39.595981 -32.574544,63.7092 -0.910819,5.3815 -1.774966,15.32739 -1.331717,15.32739 0.151373,0 5.046387,-4.79325 10.877809,-10.65168 z M 250.98423,122.0788 C 248.40868,87.332577 229.41787,54.17657 201.07777,34.947242 186.22775,24.871204 170.71499,18.589276 153.47933,15.672137 c -5.3815,-0.91082 -15.32739,-1.774966 -15.32739,-1.331717 0,0.151373 4.79325,5.046387 10.65167,10.877809 l 10.65168,10.602586 6.40068,2.117765 c 29.53274,9.771384 52.67834,33.220082 62.09483,62.90799 l 1.62821,5.13334 10.62027,10.65168 c 5.84116,5.85843 10.74413,10.65168 10.89551,10.65168 0.15137,0 0.10162,-2.34201 -0.11056,-5.20447 z M 106.63324,39.640067 c -0.34726,-0.347264 -9.020746,3.118279 -14.085293,5.627868 -21.545498,10.676244 -38.273113,29.390607 -46.841882,52.405325 -0.821832,2.20734 -1.494241,4.17014 -1.494241,4.36176 0,0.19162 14.081745,-13.731924 31.292769,-30.941213 C 92.715617,53.884519 106.72351,39.730336 106.63324,39.640067 Z M 224.46396,97.71018 c -8.46447,-22.927509 -24.83289,-41.287615 -46.5942,-52.263733 -4.79236,-2.417202 -13.37698,-5.943276 -14.46957,-5.943276 -0.19162,0 13.73192,14.081745 30.94121,31.292769 17.20929,17.211024 31.36347,31.21891 31.45374,31.12864 0.0903,-0.0903 -0.50876,-1.98675 -1.33118,-4.2144 z M 173.84852,54.923075 C 153.9842,35.0523 157.04755,37.076539 144.58349,35.58496 136.7303,34.645166 128.03654,34.929164 119.45583,36.405804 l -5.60609,0.964742 -17.493005,17.492998 -17.492998,17.492998 h 56.206303 56.20629 z m -48.0166,-21.58603 c 7.06209,-0.808319 18.26884,-0.446827 25.64648,0.827267 1.6946,0.292652 1.20363,-0.30301 -7.29479,-8.850224 l -9.11168,-9.163995 -9.11168,9.161783 -9.11167,9.161784 2.31,-0.318596 c 1.2705,-0.175228 4.27351,-0.543337 6.67334,-0.818019 z"
       id="path8820" />
  </g>
</svg>
