<?xml version="1.0" encoding="UTF-8" standalone="no"?>
<!-- Created with Inkscape (http://www.inkscape.org/) -->

<svg
   width="1024"
   height="1024"
   viewBox="0 0 270.93333 270.93334"
   version="1.1"
   id="svg6854"
   inkscape:version="1.1 (c68e22c387, 2021-05-23)"
   sodipodi:docname="emblem02.svg"
   inkscape:export-filename="C:\Panda3D-1.10.10-x64\samples\soul-symphony2\NPCs\emblems\emblem01.png"
   inkscape:export-xdpi="96.036201"
   inkscape:export-ydpi="96.036201"
   xmlns:inkscape="http://www.inkscape.org/namespaces/inkscape"
   xmlns:sodipodi="http://sodipodi.sourceforge.net/DTD/sodipodi-0.dtd"
   xmlns:xlink="http://www.w3.org/1999/xlink"
   xmlns="http://www.w3.org/2000/svg"
   xmlns:svg="http://www.w3.org/2000/svg">
  <sodipodi:namedview
     id="namedview6856"
     pagecolor="#ffffff"
     bordercolor="#999999"
     borderopacity="1"
     inkscape:pageshadow="0"
     inkscape:pageopacity="0"
     inkscape:pagecheckerboard="0"
     inkscape:document-units="mm"
     showgrid="false"
     units="px"
     showguides="false"
     inkscape:zoom="0.36703143"
     inkscape:cx="794.20992"
     inkscape:cy="429.11857"
     inkscape:window-width="1920"
     inkscape:window-height="1009"
     inkscape:window-x="-8"
     inkscape:window-y="-8"
     inkscape:window-maximized="1"
     inkscape:current-layer="layer1" />
  <defs
     id="defs6851">
    <linearGradient
       inkscape:collect="always"
       id="linearGradient16985">
      <stop
         style="stop-color:#ffff00;stop-opacity:1"
         offset="0"
         id="stop16981" />
      <stop
         style="stop-color:#f5199a;stop-opacity:1"
         offset="1"
         id="stop16983" />
    </linearGradient>
    <linearGradient
       inkscape:collect="always"
       id="linearGradient11738">
      <stop
         style="stop-color:#000000;stop-opacity:0"
         offset="0"
         id="stop11734" />
      <stop
         style="stop-color:#f5199a;stop-opacity:0"
         offset="1"
         id="stop11736" />
    </linearGradient>
    <linearGradient
       inkscape:collect="always"
       xlink:href="#linearGradient11738"
       id="linearGradient11740"
       x1="10.813107"
       y1="8.650485"
       x2="13.894159"
       y2="11.053761"
       gradientUnits="userSpaceOnUse" />
    <radialGradient
       inkscape:collect="always"
       xlink:href="#linearGradient16985"
       id="radialGradient16949"
       cx="135.46593"
       cy="135.52921"
       fx="135.46593"
       fy="135.52921"
       r="121.57177"
       gradientTransform="matrix(0.27662285,-0.00390693,0.00415669,0.29430656,97.429606,96.171329)"
       gradientUnits="userSpaceOnUse"
       spreadMethod="reflect" />
  </defs>
  <g
     inkscape:label="レイヤー 1"
     inkscape:groupmode="layer"
     id="layer1">
    <path
       style="fill:url(#linearGradient11740);stroke-width:2.64583333;paint-order:stroke markers fill;stroke:url(#radialGradient16949);stroke-opacity:1;stroke-miterlimit:4;stroke-dasharray:none;fill-opacity:1"
       d="m 118.23137,257.91978 c -10.7429,-1.63524 -19.871707,-4.2397 -29.501047,-8.41669 -29.5562,-12.82081 -53.04687,-37.38666 -64.95531,-67.92833 -10.46383,-26.83668 -11.36478,-57.15997 -2.51164,-84.534379 1.45263,-4.491619 4.53166,-12.303125 4.84947,-12.303125 0.13683,0 1.1551,0.534099 2.26282,1.186887 1.10772,0.652785 4.81201,2.779537 8.23175,4.726111 3.41974,1.946577 6.19054,3.644901 6.15734,3.774054 -0.0332,0.129151 -0.70973,1.901698 -1.5034,3.93899 -5.01243,12.866562 -7.30098,26.312682 -6.95753,40.878132 0.1271,5.39016 0.74943,12.82153 1.10336,13.17546 0.50453,0.50454 25.16379,14.02765 25.30274,13.876 0.0989,-0.10794 2.82671,-5.01101 6.06179,-10.89571 l 5.88197,-10.69945 -0.18076,-3.85263 c -0.30688,-6.54061 0.57011,-14.2118 2.37946,-20.8136 4.65924,-17.00022 16.38529,-31.851496 31.586237,-40.004613 l 2.48204,-1.331257 6.16947,-11.200543 c 3.39321,-6.160296 6.17273,-11.336467 6.17671,-11.502596 0.007,-0.304533 -25.883317,-14.911486 -26.430387,-14.911486 -0.37642,0 -5.59873,2.613173 -8.35509,4.180774 -3.70105,2.104869 -9.40876,6.001827 -13.09687,8.941919 -4.24411,3.383328 -12.46534,11.545907 -15.58508,15.473884 l -2.22362,2.799702 -7.83055,-4.623292 c -4.3068,-2.54281 -8.10468,-4.791784 -8.43975,-4.997717 l -0.60921,-0.374428 0.98302,-1.37386 c 5.69122,-7.953989 15.08678,-17.537711 23.78331,-24.259606 17.22334,-13.312597 37.814257,-21.554815 59.928127,-23.988283 5.72702,-0.630215 18.43685,-0.631566 24.03498,-0.0026 14.35538,1.612988 26.61013,5.110139 39.12908,11.166306 16.43904,7.952552 30.28089,19.005305 41.75459,33.341143 3.47849,4.346217 6.2852,8.349546 6.03066,8.601821 -0.12165,0.120573 -3.73353,2.241209 -8.02639,4.712525 l -7.80521,4.493303 -0.57855,-0.707798 c -0.3182,-0.389277 -1.7981,-2.255597 -3.28866,-4.147368 -5.15067,-6.537074 -14.26106,-15.10541 -21.46993,-20.192511 -4.8748,-3.440015 -15.77881,-9.467149 -16.75067,-9.258848 -0.67294,0.144232 -25.75747,15.945734 -25.75237,16.222192 0.003,0.145521 2.52814,4.908021 5.61212,10.583334 l 5.60723,10.31875 2.77812,1.418963 c 19.08329,9.747028 32.24325,28.95288 34.79687,50.78306 0.44684,3.81991 0.51362,11.26964 0.13088,14.59906 l -0.25783,2.24273 5.30666,9.7935 c 2.91866,5.38643 5.34058,9.82743 5.38204,9.86889 0.0415,0.0415 6.01547,-3.61784 13.27557,-8.13178 7.2601,-4.51393 13.29934,-8.24104 13.42053,-8.28246 0.44129,-0.15082 0.71151,-3.66561 0.86916,-11.3055 0.12599,-6.1053 0.0697,-8.756 -0.25852,-12.17083 -0.83377,-8.67525 -2.61437,-17.05256 -5.22272,-24.57176 -0.73854,-2.12902 -1.39229,-4.109081 -1.45278,-4.400123 -0.0939,-0.451765 1.06081,-1.17462 7.89435,-4.941935 l 8.00433,-4.412771 0.48184,1.105479 c 0.26502,0.608013 1.23911,3.367665 2.16466,6.132561 7.56268,22.591989 8.5643,47.043989 2.87748,70.246879 -5.48418,22.37616 -17.23076,43.03851 -33.47293,58.87927 -7.43304,7.24934 -13.63209,12.0766 -22.10088,17.21019 -13.89879,8.42513 -29.19738,13.84288 -45.3986,16.07721 l -2.57969,0.35577 v -9.02621 -9.02621 l 3.69751,-0.59436 c 13.85609,-2.22731 28.54919,-8.13222 40.09103,-16.11192 l 1.85208,-1.28047 0.16542,-4.75986 c 0.091,-2.61793 0.18027,-9.176 0.19844,-14.5735 l 0.033,-9.81363 -11.79602,-0.18582 -11.79602,-0.18582 -2.80128,1.63735 c -7.63901,4.46503 -15.55349,7.1648 -24.40668,8.32557 -4.56191,0.59813 -13.65179,0.4058 -17.99167,-0.38069 -8.12513,-1.47246 -15.63652,-4.30755 -22.24811,-8.39731 l -2.32315,-1.43705 -12.157587,-0.16973 -12.15758,-0.16973 -0.16697,5.66504 c -0.0918,3.11577 -0.19496,9.66021 -0.22918,14.5432 l -0.0622,8.87815 2.37603,1.69366 c 11.6489,8.30344 26.645567,14.42798 40.980277,16.73609 l 3.66882,0.59073 -0.16309,1.56031 c -0.0897,0.85817 -0.16308,4.93613 -0.16308,9.06213 0,6.97669 -0.0324,7.50025 -0.46302,7.4795 -0.25466,-0.0123 -2.24896,-0.29416 -4.43177,-0.62642 z m 2.30217,-8.41325 c 0.0435,-3.6744 0.0738,-6.70587 0.0673,-6.73661 -0.006,-0.0307 -1.61383,-0.36597 -3.57187,-0.74496 -19.304447,-3.73652 -36.338897,-12.36507 -50.991047,-25.82875 -4.18497,-3.84551 -10.32923,-10.66254 -12.82415,-14.22834 l -0.44869,-0.64127 -5.69759,3.79006 c -3.13367,2.08453 -5.69758,3.8808 -5.69758,3.9917 0,0.31299 4.28577,5.61493 7.15107,8.84661 15.29364,17.24923 36.65714,30.1762 59.055747,35.73441 2.86105,0.70997 11.02994,2.30519 12.69223,2.47854 0.10202,0.0106 0.22108,-2.98699 0.26458,-6.66139 z m 37.38533,5.33012 c 10.23793,-2.01636 19.58904,-5.21417 29.06727,-9.94017 11.83103,-5.89914 21.54653,-12.9401 31.1257,-22.55726 3.9924,-4.00822 10.59201,-11.58046 10.57866,-12.1377 -0.002,-0.10123 -2.41344,-1.74634 -5.35782,-3.6558 l -5.3534,-3.47176 -0.66146,0.82491 c -4.43724,5.53374 -10.50244,11.792 -15.17029,15.65317 -13.92649,11.51978 -29.89079,19.17445 -46.60991,22.34883 -1.60073,0.30393 -3.23784,0.61606 -3.63802,0.69364 l -0.72761,0.14105 v 6.61839 6.61839 l 1.38906,-0.17703 c 0.76399,-0.0974 3.175,-0.52876 5.35782,-0.95866 z m 41.52621,-36.46048 c 5.15451,-4.14761 11.00945,-10.11395 15.66706,-15.96518 2.61601,-3.28641 6.27221,-8.65575 6.04737,-8.8809 -0.0996,-0.0998 -5.52912,-0.2198 -12.06557,-0.26677 l -11.88445,-0.0854 -5.3e-4,7.36144 c -2.6e-4,4.04879 -0.0794,10.14875 -0.17574,13.55547 -0.14982,5.29869 -0.12105,6.16272 0.19904,5.97745 0.2058,-0.11913 1.20161,-0.88238 2.2129,-1.69612 z m -125.451607,-12.51115 0.15175,-13.41287 -12.08818,-0.0809 c -6.6485,-0.0445 -12.13002,-0.0589 -12.18116,-0.032 -0.0511,0.0269 0.88951,1.51517 2.09033,3.30729 3.90665,5.83037 7.80868,10.5995 12.71516,15.54073 2.89071,2.91117 8.95505,8.34689 9.1043,8.16056 0.0308,-0.0385 0.12434,-6.10575 0.2078,-13.48283 z m 158.580107,-1.00693 c 1.66513,-2.50433 1.81606,-2.76112 1.52002,-2.58614 -0.13162,0.0778 -1.78713,0.76086 -3.6789,1.51793 -1.89177,0.75706 -3.5355,1.46851 -3.65272,1.581 -0.11722,0.11249 0.64975,0.74453 1.7044,1.40453 l 1.91753,1.20001 0.43512,-0.56647 c 0.23932,-0.31156 1.02887,-1.45945 1.75455,-2.55086 z m -190.617207,0.49156 c 1.13978,-0.74829 2.03965,-1.39105 1.99971,-1.42834 -0.23923,-0.22335 -7.93797,-3.06003 -8.03677,-2.96123 -0.15277,0.15277 3.52404,5.7501 3.77717,5.7501 0.10315,0 1.1201,-0.61224 2.25989,-1.36053 z m 181.190997,-4.90669 c -0.45569,-4.19475 -0.37101,-4.12104 -2.0172,-1.75599 -0.78885,1.13332 -1.40379,2.15105 -1.36653,2.26163 0.0864,0.25636 3.47572,2.55279 3.60091,2.43977 0.0515,-0.0465 -0.0462,-1.37191 -0.21718,-2.94541 z m 8.13527,0.1696 c 3.34273,-1.35935 3.50754,-1.46144 3.38582,-2.09741 -0.0704,-0.36769 -0.20709,-2.18168 -0.30382,-4.03111 -0.0967,-1.84942 -0.25114,-3.7095 -0.34312,-4.1335 l -0.16724,-0.77092 -4.36248,1.70502 c -2.39937,0.93776 -4.40638,1.74892 -4.46004,1.80257 -0.0992,0.0992 0.65047,7.23128 0.92356,8.7862 0.14767,0.84078 0.16035,0.84737 0.98157,0.50992 0.45759,-0.18803 2.41317,-0.98488 4.34575,-1.77077 z m -181.968577,-0.16122 1.85239,-1.23176 -0.4457,-0.68647 c -1.6683,-2.56955 -2.3047,-3.4646 -2.4634,-3.4646 -0.0998,0 -0.33164,1.16086 -0.51527,2.57969 -0.18363,1.41883 -0.39768,2.90711 -0.47568,3.30729 -0.078,0.40018 -0.066,0.7276 0.0267,0.7276 0.0927,0 1.00211,-0.55429 2.02093,-1.23175 z m -4.64823,0.10728 c 0.29902,-1.35879 1.22809,-8.45451 1.14114,-8.71537 -0.0988,-0.29651 -8.95378,-3.66054 -9.22152,-3.5033 -0.21353,0.1254 -0.89495,9.33943 -0.70477,9.52961 0.21279,0.2128 7.92638,3.23367 8.32846,3.26168 0.17913,0.0125 0.38464,-0.2452 0.45669,-0.57262 z M 146.2772,199.86241 c 5.98691,-1.06544 11.37145,-2.84282 16.74611,-5.5277 l 2.50343,-1.25057 -15.4456,-0.16132 c -8.49509,-0.0887 -21.81545,-0.17618 -29.60081,-0.19435 l -14.15521,-0.0331 1.6455,0.9327 c 5.48121,3.10682 14.13739,5.84322 21.24096,6.7147 3.57015,0.43799 13.47113,0.15927 17.06562,-0.48041 z m 92.87721,-5.93223 c 0.82898,-1.57197 1.46386,-2.89154 1.41085,-2.93238 -0.10171,-0.0783 -3.36805,-2.00786 -3.77197,-2.2282 -0.13598,-0.0742 -0.16157,0.81271 -0.0604,2.0929 0.0966,1.2219 0.2486,3.15213 0.3378,4.2894 0.0892,1.13728 0.2554,1.97071 0.36932,1.85209 0.11392,-0.11863 0.88538,-1.50184 1.71437,-3.07381 z M 33.536993,192.01303 c 0.21126,-2.31932 0.357,-4.24405 0.32387,-4.27718 -0.0517,-0.0517 -3.49828,2.17385 -3.86685,2.49695 -0.0721,0.0632 0.5703,1.47728 1.42756,3.14238 0.85727,1.66509 1.59751,2.9886 1.645,2.94112 0.0475,-0.0475 0.25917,-1.98396 0.47042,-4.30327 z M 224.83681,187.6799 c 3.59754,-6.5413 6.65292,-13.98755 8.77909,-21.39549 1.19338,-4.15794 2.84979,-11.73363 2.6995,-12.34632 -0.0861,-0.35108 -24.81841,14.89418 -24.81841,15.29833 0,0.20812 11.43485,21.57101 11.55694,21.59098 0.0262,0.004 0.82846,-1.4121 1.78288,-3.1475 z m -5.13774,2.80032 c 0,-0.0778 -22.48201,-41.61228 -71.4503,-132.001096 -6.75968,-12.477443 -12.3612,-22.687053 -12.44784,-22.688021 -0.0866,-9.71e-4 -19.16286,34.556127 -42.391617,76.793547 l -42.2341,76.79532 12.75829,0.0459 c 7.01705,0.0252 20.97359,0.18904 31.01453,0.36398 10.040937,0.17494 40.104217,0.4016 66.807297,0.5037 26.70307,0.10209 50.6644,0.20619 53.24739,0.23133 2.583,0.0251 4.69635,0.005 4.69635,-0.0447 z m 11.2448,-2.54583 c 1.16416,-0.46359 2.20263,-0.92592 2.3077,-1.0274 0.10507,-0.10148 -0.65645,-0.69434 -1.69226,-1.31747 -1.03581,-0.62312 -1.9663,-1.03722 -2.06776,-0.92021 -0.10146,0.11701 -0.73616,1.24828 -1.41044,2.51393 l -1.22596,2.3012 0.98602,-0.35357 c 0.54232,-0.19447 1.93853,-0.73288 3.1027,-1.19648 z M 53.968503,178.66434 c 3.93801,-7.13127 5.25428,-9.7327 5.03227,-9.94559 -0.3272,-0.31375 -21.9825,-12.41176 -22.69986,-12.68156 -0.39283,-0.14775 -0.37465,0.13784 0.17362,2.72655 2.14681,10.1365 6.4456,21.70377 10.92087,29.38607 0.60264,1.03449 0.69941,1.10149 0.95537,0.66146 0.15664,-0.2693 2.68462,-4.83542 5.61773,-10.14693 z m 190.912807,2.9178 c 3.6444,-9.11399 6.3055,-19.28415 7.61724,-29.11155 0.87545,-6.55875 1.14213,-11.81889 0.98593,-19.44687 -0.20944,-10.22828 -1.15163,-17.49424 -3.51668,-27.11979 -1.27768,-5.20006 -3.99658,-13.75834 -4.37092,-13.75834 -0.17389,0 -11.529,6.219078 -11.80856,6.467428 -0.0363,0.0322 0.46645,1.676572 1.11718,3.654082 2.20462,6.69964 3.7965,13.89764 4.81252,21.76078 0.59733,4.62281 0.6864,19.46231 0.14451,24.07709 -1.263,10.75596 -3.51176,19.73038 -7.38233,29.46174 -1.02996,2.58952 -1.62439,4.4227 -1.48071,4.56639 0.13203,0.13203 2.61431,1.65803 5.51618,3.39111 l 5.27611,3.15107 0.885,-1.89661 c 0.48675,-1.04314 1.47878,-3.38158 2.20453,-5.19653 z m -200.600987,6.4701 c 0,-0.407 -2.7026,-5.44227 -2.88291,-5.3712 -0.44984,0.17731 -4.25404,2.73667 -4.25473,2.86247 -5.3e-4,0.11425 6.39642,2.52306 6.93921,2.61297 0.10914,0.0181 0.19843,-0.0288 0.19843,-0.10424 z m -4.12503,-7.82261 c 0.14104,-0.12947 -0.28273,-1.56639 -1.02418,-3.47275 -3.58133,-9.2081 -5.9408,-18.94867 -7.06856,-29.18108 -0.52868,-4.79677 -0.4481,-18.03334 0.14012,-23.01875 1.10967,-9.40487 3.55938,-19.51503 6.56481,-27.093478 0.42708,-1.076934 0.68132,-2.053252 0.56498,-2.169597 -0.25774,-0.257741 -12.31968,-7.117136 -12.51517,-7.117136 -0.21262,0 -2.30711,5.528237 -3.60875,9.525001 -4.22451,12.97157 -6.14332,26.36777 -5.83627,40.74584 0.36404,17.04604 3.86117,32.84954 10.61296,47.95982 l 0.68162,1.52544 5.62393,-3.74123 c 3.09315,-2.05767 5.73219,-3.84061 5.86451,-3.96208 z M 197.17038,134.43414 c -1.05625,-20.06418 -11.26113,-38.150396 -27.73284,-49.151215 -2.48708,-1.661028 -5.30096,-3.305204 -5.30096,-3.097398 0,0.106071 31.18694,57.783813 32.56746,60.230903 0.34805,0.61694 0.38317,0.50121 0.52191,-1.7198 0.0818,-1.30968 0.0568,-4.12781 -0.0556,-6.26249 z M 90.982183,111.59247 c 8.54835,-15.570734 15.607937,-28.422457 15.687977,-28.55939 0.08,-0.136932 -0.32204,0.03307 -0.89351,0.377772 -10.646637,6.422012 -18.637337,15.079336 -24.057897,26.064948 -3.81014,7.72183 -5.67228,14.34014 -6.47659,23.01875 -0.3343,3.60713 -0.35513,8.00236 -0.0363,7.65969 0.12863,-0.13825 7.22797,-12.99104 15.77632,-28.56177 z M 225.6522,67.995121 c 3.05594,-1.74338 5.58014,-3.188259 5.60934,-3.210841 0.138,-0.106714 -4.84583,-6.522273 -7.23865,-9.318138 -3.09432,-3.615532 -10.23628,-10.709532 -13.71652,-13.624407 -15.58647,-13.054462 -33.8428,-21.75191 -53.44584,-25.46199 -1.89177,-0.358038 -3.9456,-0.731721 -4.56406,-0.830407 l -1.12448,-0.17943 v 7.572186 c 0,5.833254 0.076,7.592899 0.33073,7.662383 0.1819,0.04961 2.23573,0.45933 4.56406,0.910493 16.49875,3.196969 32.1565,10.697277 45.69494,21.888581 5.16658,4.270859 13.27922,12.745384 16.4843,17.219623 0.68029,0.94968 0.85995,1.061469 1.31876,0.820595 0.29214,-0.153376 3.03148,-1.705269 6.08742,-3.448648 z M 56.860533,66.679443 c 2.68047,-3.287474 10.94884,-11.387267 14.53958,-14.24314 14.19176,-11.287319 30.164637,-18.557405 47.294277,-21.526075 l 0.99219,-0.171952 v -7.660927 c 0,-4.415691 -0.10181,-7.660928 -0.24034,-7.660928 -0.13219,0 -2.12649,0.346999 -4.43177,0.77111 -23.977607,4.41123 -45.082457,15.590634 -62.313237,33.007806 -5.72984,5.791824 -10.80498,11.832431 -10.33561,12.301802 0.42109,0.42109 12.07085,7.312523 12.40815,7.340055 0.16884,0.01378 1.10788,-0.957204 2.08676,-2.157751 z M 161.22616,47.167734 c 6.33015,-3.964104 11.66747,-7.355774 11.8607,-7.53704 0.28434,-0.266734 -0.39674,-0.592302 -3.57187,-1.707407 -6.66663,-2.341319 -13.31927,-3.980479 -19.81892,-4.883229 -3.38375,-0.469978 -12.2129,-1.112588 -12.42143,-0.904067 -0.22828,0.228288 11.88391,22.44526 12.17756,22.336868 0.14552,-0.05371 5.4438,-3.341018 11.77396,-7.305125 z m -32.75632,-3.970062 c 2.98661,-5.457032 5.5787,-10.205828 5.76021,-10.55288 l 0.33001,-0.631004 -3.26955,0.181207 c -7.81895,0.433345 -16.08481,1.813173 -23.03283,3.844893 -3.98709,1.165892 -10.362257,3.446489 -10.170457,3.638291 0.48078,0.480785 24.669657,13.777772 24.794117,13.629704 0.0871,-0.103585 2.6019,-4.65318 5.5885,-10.110211 z m 0.47179,-13.461735 2.2436,-0.164307 -4.26119,-2.71198 c -2.34365,-1.491588 -4.33553,-2.711979 -4.42641,-2.711979 -0.0909,0 -0.16522,1.384593 -0.16522,3.076873 v 3.076873 l 2.18281,-0.200586 c 1.20055,-0.110323 3.19243,-0.274525 4.42641,-0.364894 z m 19.58453,-2.545557 c 0,-1.67349 -0.0575,-3.042709 -0.12774,-3.042709 -0.32389,0 -8.07434,5.101574 -8.07434,5.31477 0,0.132814 0.8632,0.254403 1.91822,0.270197 1.05503,0.01579 2.63261,0.117351 3.50573,0.225684 3.09476,0.383979 2.77813,0.699447 2.77813,-2.767942 z m -7.38679,-1.602858 c 2.68029,-1.697956 4.90801,-3.118415 4.95051,-3.156577 0.14906,-0.133876 -10.79357,-6.793673 -11.01879,-6.706146 -0.76118,0.295816 -10.0755,6.476791 -10.02006,6.649302 0.0373,0.115943 2.37875,1.686526 5.2033,3.490185 3.89117,2.48477 5.2417,3.222564 5.57367,3.044903 0.24096,-0.128962 2.63108,-1.623712 5.31137,-3.321667 z m -13.17065,-8.449453 c 2.26209,-1.454188 4.07767,-2.679196 4.03463,-2.722241 -0.11133,-0.111324 -8.0677,0.447341 -8.94334,0.627966 l -0.7276,0.150089 v 2.783085 2.783085 l 0.76172,-0.489004 c 0.41894,-0.268951 2.61251,-1.678793 4.87459,-3.13298 z m 20.55744,0.812916 v -2.757102 l -0.72761,-0.145204 c -0.98674,-0.19692 -9.08745,-0.753311 -9.20829,-0.632465 -0.0766,0.07658 9.62365,6.252094 9.86975,6.283447 0.0364,0.0046 0.0661,-1.232269 0.0661,-2.748676 z M 133.4458,233.7819 c -1.64795,-0.34459 -4.04675,-1.71432 -5.43701,-3.10458 -6.283,-6.283 -3.37168,-17.16784 5.17806,-19.35968 7.01331,-1.79795 13.75181,3.65841 13.75181,11.13525 0,4.85385 -2.8011,9.07072 -7.14375,10.75443 -1.44703,0.56104 -4.91355,0.87475 -6.34911,0.57458 z m 71.56544,-126.7664 c -5.44004,-1.88112 -8.75344,-7.226678 -7.85186,-12.667537 1.06308,-6.41545 6.78682,-10.732313 12.85242,-9.693318 7.48241,1.281682 11.67761,9.823596 8.16214,16.619075 -2.53098,4.89244 -8.31826,7.41695 -13.1627,5.74178 z M 62.073733,104.96594 c -2.11912,-0.57063 -3.47018,-1.36488 -5.09919,-2.99764 -4.40506,-4.415238 -4.51154,-11.519026 -0.24036,-16.035175 2.51333,-2.657472 5.17941,-3.717838 8.86182,-3.52456 1.77094,0.09295 2.5031,0.272725 3.88862,0.954816 4.95649,2.440072 7.52924,8.069 6.13507,13.422974 -1.5686,6.023855 -7.73153,9.745275 -13.54596,8.179585 z"
       id="path11494" />
  </g>
</svg>
