<?xml version="1.0" encoding="UTF-8" standalone="no"?>
<!-- Created with Inkscape (http://www.inkscape.org/) -->

<svg
   width="1024"
   height="1024"
   viewBox="0 0 270.93333 270.93334"
   version="1.1"
   id="svg11603"
   inkscape:export-filename="C:\Panda3D-1.10.10-x64\samples\soul-symphony2\NPCs\faces\face01.png"
   inkscape:export-xdpi="96.036201"
   inkscape:export-ydpi="96.036201"
   inkscape:version="1.1 (c68e22c387, 2021-05-23)"
   sodipodi:docname="face01.svg"
   xmlns:inkscape="http://www.inkscape.org/namespaces/inkscape"
   xmlns:sodipodi="http://sodipodi.sourceforge.net/DTD/sodipodi-0.dtd"
   xmlns:xlink="http://www.w3.org/1999/xlink"
   xmlns="http://www.w3.org/2000/svg"
   xmlns:svg="http://www.w3.org/2000/svg">
  <sodipodi:namedview
     id="namedview11605"
     pagecolor="#ffffff"
     bordercolor="#999999"
     borderopacity="1"
     inkscape:pageshadow="0"
     inkscape:pageopacity="0"
     inkscape:pagecheckerboard="0"
     inkscape:document-units="mm"
     showgrid="false"
     units="px"
     inkscape:zoom="0.36703143"
     inkscape:cx="102.17109"
     inkscape:cy="701.5748"
     inkscape:window-width="1920"
     inkscape:window-height="1009"
     inkscape:window-x="-8"
     inkscape:window-y="-8"
     inkscape:window-maximized="1"
     inkscape:current-layer="layer1" />
  <defs
     id="defs11600">
    <linearGradient
       inkscape:collect="always"
       id="linearGradient13601">
      <stop
         style="stop-color:#00ff00;stop-opacity:1"
         offset="0"
         id="stop13599" />
      <stop
         style="stop-color:#ffff00;stop-opacity:1;"
         offset="1"
         id="stop13597" />
    </linearGradient>
    <radialGradient
       inkscape:collect="always"
       xlink:href="#linearGradient13601"
       id="radialGradient13635"
       cx="405.64648"
       cy="509.02377"
       fx="405.64648"
       fy="509.02377"
       r="545.15442"
       gradientTransform="matrix(0.49884154,3.9099518e-4,-1.3386166e-4,0.10461949,-72.563065,125.61371)"
       gradientUnits="userSpaceOnUse"
       spreadMethod="reflect" />
    <radialGradient
       inkscape:collect="always"
       xlink:href="#linearGradient13601"
       id="radialGradient13635-4"
       cx="405.64648"
       cy="509.02377"
       fx="405.64648"
       fy="509.02377"
       r="545.15442"
       gradientTransform="matrix(-2.2348273e-4,0.23237914,-0.0597978,-6.235779e-5,93.316187,-30.27741)"
       gradientUnits="userSpaceOnUse"
       spreadMethod="reflect" />
    <radialGradient
       inkscape:collect="always"
       xlink:href="#linearGradient13601"
       id="radialGradient13635-4-7"
       cx="405.64648"
       cy="509.02377"
       fx="405.64648"
       fy="509.02377"
       r="545.15442"
       gradientTransform="matrix(2.2348273e-4,0.23237914,0.0597978,-6.235779e-5,175.01537,-30.98604)"
       gradientUnits="userSpaceOnUse"
       spreadMethod="reflect" />
  </defs>
  <g
     inkscape:label="レイヤー 1"
     inkscape:groupmode="layer"
     id="layer1">
    <path
       style="fill:#ffffff;stroke:#000000;stroke-width:0.206062px;stroke-linecap:butt;stroke-linejoin:miter;stroke-opacity:1"
       d="m 105.7948,196.65976 -7.095061,-25.9918 6.345991,-30.29808 24.74936,-18.37753 14.91309,13.16228 13.00929,23.59277 -4.73586,38.88831 -5.73503,14.75422 -26.33587,6.70532 z"
       id="path12728" />
    <path
       id="path11719"
       style="fill:#000000;fill-opacity:1;stroke:url(#radialGradient13635);stroke-width:8.13136;paint-order:stroke markers fill"
       d="m 117.70547,92.064651 c -2.1627,0.0047 -3.74488,0.06977 -4.16295,0.224672 -1.67224,0.619612 -4.73669,-0.365345 -8.6771,3.073834 -3.94043,3.43918 -3.66036,1.214936 -6.586761,6.728753 -2.92639,5.51382 -3.62008,5.95923 -3.93139,8.4307 -0.31131,2.47147 -4.634401,3.88485 1.36521,4.3478 5.999601,0.46295 6.506691,1.50005 11.776911,0.15987 1.03967,-0.26438 1.76939,-0.44736 2.48521,-0.62951 0.33319,1.94302 1.50241,2.21339 3.01155,5.13398 0.57507,1.11292 1.32776,2.07999 2.22319,2.97912 -49.508653,44.53502 -0.30525,113.37119 -0.30525,113.37119 l -5.41261,10.06358 -18.683926,4.04836 -21.987999,-7.68584 -7.827769,-16.32553 5.274769,-16.56232 5.448097,-25.53281 c 0,0 -4.474481,-12.57335 -7.41425,-14.54704 -2.939768,-1.97368 -18.136667,-7.88755 -20.662817,-8.08248 -2.526151,-0.19492 -21.183064,1.11035 -22.348289,2.76728 -1.165225,1.65693 -11.029518,11.62632 -11.5276151,15.58066 -0.498097,3.95435 -3.31783,16.21431 -1.890182,20.06771 1.427645,3.8534 5.1679341,12.12773 6.7823681,14.49826 1.614433,2.37051 10.656359,9.05732 11.82604,9.89622 1.169683,0.8389 -10.322992,-16.76776 -10.322992,-16.76776 l -0.06641,-19.71948 c 0,0 7.458332,-13.64863 8.530164,-14.56413 1.071828,-0.91548 12.688207,-2.0155 16.192796,-1.99462 3.504586,0.0209 19.182016,9.71525 19.279868,11.46964 0.09786,1.7544 1.850351,10.62366 -1.898828,15.07579 -3.749177,4.45213 -8.841694,17.03589 -10.189246,22.67153 -1.347554,5.63565 -6.417456,12.9802 -1.858794,19.82023 4.55866,6.84004 10.695872,13.80193 15.721502,16.93476 5.025625,3.13283 9.544478,5.22851 17.692207,6.35631 8.147725,1.1278 14.214165,3.59211 22.041676,2.19972 7.82748,-1.3924 19.31491,-3.99936 23.57109,-7.41416 0.4887,-0.39209 0.98292,-0.83081 1.47668,-1.29747 a 18.720681,14.652357 0 0 0 7.87963,1.48226 c 4.43467,3.32309 15.62946,5.86247 23.31362,7.22937 7.82749,1.39239 13.89348,-1.07192 22.04122,-2.19972 8.14772,-1.1278 12.66657,-3.22348 17.6922,-6.35631 5.02564,-3.13283 11.16284,-10.09472 15.72149,-16.93476 4.55867,-6.84003 -0.51124,-14.18458 -1.85878,-19.82023 -1.34756,-5.63564 -6.43961,-18.2194 -10.18881,-22.67153 -3.74916,-4.45213 -1.99713,-13.32139 -1.89927,-15.07579 0.0978,-1.75439 15.77528,-11.44877 19.27987,-11.46964 3.50458,-0.0209 15.12142,1.07914 16.19325,1.99462 1.07182,0.9155 8.53017,14.56413 8.53017,14.56413 l -0.067,19.71948 c 0,0 -11.4922,17.60666 -10.32253,16.76776 1.16968,-0.8389 10.21113,-7.52571 11.82557,-9.89622 1.61443,-2.37053 5.35473,-10.64486 6.78238,-14.49826 1.42765,-3.8534 -1.39209,-16.11336 -1.89018,-20.06771 -0.49811,-3.95434 -10.36239,-13.92373 -11.52762,-15.58066 -1.16522,-1.65693 -19.82214,-2.9622 -22.34829,-2.76728 -2.52615,0.19493 -17.72306,6.1088 -20.66282,8.08248 -2.93976,1.97369 -7.4138,14.54704 -7.4138,14.54704 l 5.44766,25.53281 5.27477,16.56232 -7.82777,16.32553 -21.98801,7.68584 -15.44308,-3.34622 a 18.720681,14.652357 0 0 0 0.39896,-2.96951 18.720681,14.652357 0 0 0 -6.76463,-11.27417 c 4.90255,-7.8005 16.25154,-27.93188 18.92141,-50.92318 a 36.489459,28.559676 0 0 0 0.8525,-6.09747 36.489459,28.559676 0 0 0 -0.28568,-3.55628 c -0.0161,-16.83578 -5.53499,-34.43214 -22.08076,-49.31594 0.89547,-0.89917 1.64763,-1.86651 2.22272,-2.97948 1.50915,-2.92058 2.67835,-3.19098 3.01156,-5.13398 0.71582,0.18215 1.44555,0.36513 2.48522,0.62951 5.27022,1.34018 5.77731,0.30308 11.77691,-0.15987 5.9996,-0.46295 1.67652,-1.87633 1.36521,-4.3478 -0.31132,-2.47147 -1.00501,-2.91688 -3.93141,-8.4307 -2.92639,-5.513819 -2.64632,-3.289574 -6.58675,-6.728753 -3.94043,-3.439178 -7.0044,-2.45422 -8.67665,-3.073834 -1.0649,-0.394583 -9.6594,-0.205504 -16.18004,0.07869 -3.96082,-0.172625 -8.67035,-0.310606 -12.01666,-0.30336 z m 12.01665,8.460609 c 0,0 6.62672,1.98408 6.78237,3.21982 0.15567,1.23573 0.21779,1.73008 1.06725,3.41137 0.0258,0.0513 0.0554,0.10019 0.0819,0.15097 -0.0951,0.25137 -0.37147,0.60934 -0.97125,1.24157 -2.20591,2.32528 -4.38494,1.90739 -4.38494,1.90739 -0.87815,0.49093 -1.73259,0.98884 -2.57529,1.4901 -0.8427,-0.50126 -1.69714,-0.99917 -2.57528,-1.4901 0,0 -2.17904,0.41789 -4.38497,-1.90739 -0.60002,-0.63249 -0.87586,-0.99054 -0.97079,-1.24192 0.0265,-0.0506 0.0556,-0.0995 0.0814,-0.15062 0.84946,-1.68129 0.91159,-2.17564 1.06725,-3.41137 0.15565,-1.23574 6.78237,-3.21982 6.78237,-3.21982 z m -41.493488,22.95709 a 9.2016922,7.2020071 0 0 0 -9.201629,7.20195 9.2016922,7.2020071 0 0 0 9.201629,7.20195 9.2016922,7.2020071 0 0 0 9.202057,-7.20195 9.2016922,7.2020071 0 0 0 -9.202057,-7.20195 z m 81.863348,0.99339 a 9.2016922,7.2020071 0 0 0 -9.20162,7.20196 9.2016922,7.2020071 0 0 0 9.20162,7.20194 9.2016922,7.2020071 0 0 0 9.20207,-7.20194 9.2016922,7.2020071 0 0 0 -9.20207,-7.20196 z m -40.36941,8.73478 c 1.81135,1.69198 3.2798,3.43292 7.22227,6.93491 6.46212,5.74009 6.02173,4.77591 8.22765,7.10118 1.03677,1.09286 1.85823,2.1024 2.80912,3.24047 a 36.489459,28.559676 0 0 0 -17.86916,-3.66026 36.489459,28.559676 0 0 0 -19.18935,4.29083 c 1.18683,-1.40258 2.13033,-2.58681 3.34866,-3.87104 2.20592,-2.32527 1.76597,-1.3611 8.22809,-7.10118 3.94262,-3.5021 5.41131,-5.24288 7.22272,-6.93491 z m -49.108816,36.46407 a 9.2016922,7.2020071 0 0 0 -9.201622,7.20196 9.2016922,7.2020071 0 0 0 9.201622,7.20195 9.2016922,7.2020071 0 0 0 9.201618,-7.20195 9.2016922,7.2020071 0 0 0 -9.201618,-7.20196 z m 97.728166,0.49671 a 9.2016922,7.2020071 0 0 0 -9.20162,7.20195 9.2016922,7.2020071 0 0 0 9.20162,7.20195 9.2016922,7.2020071 0 0 0 9.20162,-7.20195 9.2016922,7.2020071 0 0 0 -9.20162,-7.20195 z m -72.54712,26.48846 a 36.489459,28.559676 0 0 0 24.31765,7.28634 36.489459,28.559676 0 0 0 22.86916,-6.31039 c -0.2782,0.37558 -0.54538,0.70829 -0.98717,1.24015 -1.10741,1.3332 -2.97074,1.72663 -5.02547,3.13294 -2.05473,1.40628 -4.39423,3.0838 -5.59504,3.67556 -1.20082,0.59176 -2.08565,1.15945 -5.34119,3.15751 -2.55341,1.56713 -3.89041,2.30578 -6.31062,3.89276 -2.42021,-1.58698 -3.7572,-2.32563 -6.31061,-3.89276 -3.25554,-1.99806 -4.14038,-2.56575 -5.34119,-3.15751 -1.20081,-0.59176 -3.54031,-2.26928 -5.59504,-3.67556 -2.05472,-1.40631 -3.91805,-1.79974 -5.02547,-3.13294 -0.69513,-0.83685 -1.09666,-1.38556 -1.65501,-2.2161 z m -15.34481,26.40905 a 9.2016922,7.2020071 0 0 0 -9.201629,7.20195 9.2016922,7.2020071 0 0 0 9.201629,7.20196 9.2016922,7.2020071 0 0 0 9.201619,-7.20196 9.2016922,7.2020071 0 0 0 -9.201619,-7.20195 z m 75.51724,1.98679 a 9.2016922,7.2020071 0 0 0 -9.20162,7.20196 9.2016922,7.2020071 0 0 0 9.20162,7.20195 9.2016922,7.2020071 0 0 0 9.20163,-7.20195 9.2016922,7.2020071 0 0 0 -9.20163,-7.20196 z" />
    <ellipse
       style="fill:#ffffff;stroke-width:3.39893;paint-order:stroke markers fill"
       id="path11719-2"
       cx="122.36164"
       cy="166.02512"
       rx="13.637695"
       ry="13.351713" />
    <ellipse
       style="fill:#ffffff;stroke-width:4.17174;paint-order:stroke markers fill"
       id="path11719-2-6"
       cx="134.06024"
       cy="33.64249"
       rx="18.720682"
       ry="14.652357" />
    <path
       style="fill:#ffffff;stroke:#000000;stroke-width:0.106329px;stroke-linecap:butt;stroke-linejoin:miter;stroke-opacity:1"
       d="M 46.333291,51.285294 61.189506,47.980145 78.507121,50.936347 89.011227,62.465533 81.488029,69.412612 68.002985,75.472821 45.775452,73.266676 37.342329,70.595075 33.509744,58.326853 Z"
       id="path12728-6" />
    <path
       id="path11719-4"
       style="fill:#000000;fill-opacity:1;stroke:url(#radialGradient13635-4);stroke-width:4.19581;paint-order:stroke markers fill"
       d="m 112.49197,58.356824 c -0.003,-1.007469 -0.0399,-1.744511 -0.12837,-1.939273 -0.35416,-0.778973 0.20882,-2.206517 -1.75693,-4.042103 -1.96575,-1.835615 -0.69443,-1.705139 -3.84597,-3.068368 -3.15156,-1.363228 -3.40616,-1.686368 -4.81877,-1.831391 -1.41264,-0.145023 -2.220502,-2.158875 -2.485112,0.635973 -0.2646,2.794833 -0.85737,3.031064 -0.0913,5.486127 0.15112,0.484316 0.2557,0.824235 0.35982,1.157698 -1.11057,0.155211 -1.26512,0.699872 -2.93445,1.402897 -0.63612,0.267898 -1.18886,0.618511 -1.70279,1.035641 -25.455102,-23.062983 -64.80006,-0.142197 -64.80006,-0.142197 l -5.752091,-2.521387 -2.313938,-8.703683 4.393028,-10.242842 9.331252,-3.646466 9.466591,2.457191 14.593895,2.537927 c 0,0 7.186597,-2.084385 8.31471,-3.453831 1.128098,-1.369461 4.508317,-8.44874 4.619739,-9.625521 C 73.052631,22.676435 72.306575,13.985351 71.35951,13.442535 70.412459,12.899733 64.714212,8.3045808 62.454015,8.0725445 60.193803,7.8405082 53.186335,6.5269743 50.983834,7.1920261 c -2.2025,0.6650519 -6.931892,2.4074216 -8.286835,3.1594869 -1.354914,0.752066 -5.176924,4.964135 -5.656421,5.509019 -0.479497,0.544869 9.584023,-4.808849 9.584023,-4.808849 l 11.271135,-0.03094 c 0,0 7.80121,3.474372 8.324481,3.973681 0.523272,0.499295 1.152016,5.91065 1.140072,7.543204 -0.0119,1.632568 -5.552986,8.935703 -6.55574,8.981292 -1.002784,0.04566 -6.072212,0.861956 -8.616937,-0.884534 C 49.642887,28.887869 42.450341,26.51558 39.229156,25.887847 36.007972,25.2601 31.810003,22.898357 27.900429,25.02195 c -3.909589,2.123594 -7.888834,4.982534 -9.67947,7.323661 -1.790651,2.341128 -2.988479,4.446173 -3.633109,8.241693 -0.644615,3.795519 -2.053149,6.621499 -1.257295,10.267845 0.795855,3.646347 2.28593,8.997611 4.237742,10.980302 0.224109,0.227663 0.474857,0.457885 0.741594,0.687883 a 8.3749081,8.7207963 0 0 0 -0.847215,3.670622 c -1.899396,2.065867 -3.350842,7.280809 -4.132121,10.860371 -0.795854,3.646332 0.61268,6.472103 1.257295,10.267622 0.64463,3.79552 1.842458,5.900565 3.633109,8.241693 1.790636,2.341142 5.769881,5.200088 9.67947,7.323658 3.909574,2.12361 8.107543,-0.23815 11.328727,-0.86588 3.221185,-0.62775 10.413731,-2.999812 12.958456,-4.746332 2.544725,-1.746505 7.614153,-0.930332 8.616937,-0.884743 1.002754,0.04551 6.543811,7.348715 6.55574,8.981275 0.0119,1.63257 -0.6168,7.04413 -1.140072,7.54343 -0.523271,0.49929 -8.324481,3.97368 -8.324481,3.97368 l -11.271135,-0.0312 c 0,0 -10.06352,-5.35351 -9.584023,-4.80862 0.479497,0.54488 4.301507,4.75673 5.656421,5.50879 1.354943,0.75207 6.084335,2.49444 8.286835,3.15947 2.202501,0.66507 9.209969,-0.64848 11.470181,-0.8805 2.260197,-0.23204 7.958444,-4.82719 8.905495,-5.37 0.947065,-0.54281 1.693121,-9.2339 1.581714,-10.41068 -0.111407,-1.17677 -3.491641,-8.256063 -4.619739,-9.625508 -1.128113,-1.369461 -8.31471,-3.453623 -8.31471,-3.453623 L 45.41288,93.514578 35.946289,95.971753 26.615037,92.325302 22.222009,82.08246 24.134628,74.888486 a 8.3749081,8.7207963 0 0 0 1.697286,0.185852 8.3749081,8.7207963 0 0 0 6.444036,-3.151217 c 4.458563,2.283788 15.965141,7.570572 29.106355,8.814302 a 16.323972,16.99816 0 0 0 3.48517,0.397124 16.323972,16.99816 0 0 0 2.032668,-0.133123 c 9.622904,-0.0074 19.680519,-2.5784 28.187725,-10.286037 0.51393,0.41713 1.06685,0.76752 1.70299,1.035418 1.66933,0.70301 1.82388,1.247671 2.93445,1.402897 -0.10412,0.333448 -0.2087,0.673396 -0.35982,1.157713 -0.766,2.455063 -0.17322,2.691279 0.0913,5.486127 0.26463,2.794833 1.072472,0.780981 2.485112,0.635958 1.41263,-0.145023 1.66721,-0.468178 4.81877,-1.831391 3.15154,-1.363229 1.88022,-1.232768 3.84597,-3.068354 1.96575,-1.8356 1.40277,-3.262921 1.75693,-4.041909 0.22553,-0.496082 0.11751,-4.49972 -0.0449,-7.537284 0.0986,-1.845105 0.17753,-4.038964 0.17339,-5.597802 z m -4.83586,5.597802 c 0,0 -1.13407,3.086976 -1.84036,3.159487 -0.70632,0.07259 -0.98888,0.101442 -1.94987,0.497153 -0.0293,0.0119 -0.0573,0.02573 -0.0863,0.03808 -0.14368,-0.04433 -0.34827,-0.173046 -0.70964,-0.452441 -1.32908,-1.027609 -1.09023,-2.042664 -1.09023,-2.042664 -0.2806,-0.409083 -0.56519,-0.807114 -0.85169,-1.199672 0.2865,-0.392558 0.57109,-0.790604 0.85169,-1.199672 0,0 -0.23885,-1.01507 1.09023,-2.042679 0.36151,-0.279514 0.56617,-0.408012 0.70984,-0.452233 0.029,0.0119 0.0568,0.02588 0.0861,0.03793 0.96098,0.395712 1.24355,0.424657 1.94986,0.497168 0.7063,0.07244 1.84036,3.159487 1.84036,3.159487 z M 94.534418,44.62539 a 4.116481,4.286494 0 0 0 -4.116441,-4.286454 4.116481,4.286494 0 0 0 -4.116443,4.286454 4.116481,4.286494 0 0 0 4.116443,4.286678 4.116481,4.286494 0 0 0 4.116441,-4.286678 z m -0.567802,38.135037 a 4.116481,4.286494 0 0 0 -4.116443,-4.286469 4.116481,4.286494 0 0 0 -4.116444,4.286469 4.116481,4.286494 0 0 0 4.116444,4.286663 4.116481,4.286494 0 0 0 4.116443,-4.286663 z M 88.974057,63.954835 c -0.967101,0.843794 -1.96218,1.527855 -3.96382,3.364408 -3.28089,3.010299 -2.729789,2.80514 -4.058851,3.832749 -0.624654,0.482963 -1.201681,0.865629 -1.852171,1.308595 a 16.323972,16.99816 0 0 0 2.092105,-8.324139 16.323972,16.99816 0 0 0 -2.452519,-8.939111 c 0.80167,0.552872 1.478547,0.992387 2.212585,1.559924 1.329062,1.027609 0.777961,0.822658 4.058851,3.832958 2.001715,1.836612 2.996704,2.520792 3.96382,3.364616 z m -20.84192,-22.87673 a 4.116481,4.286494 0 0 0 -4.116458,-4.286455 4.116481,4.286494 0 0 0 -4.116458,4.286455 4.116481,4.286494 0 0 0 4.116458,4.286455 4.116481,4.286494 0 0 0 4.116458,-4.286455 z M 67.84822,86.603559 a 4.116481,4.286494 0 0 0 -4.116444,-4.28647 4.116481,4.286494 0 0 0 -4.116443,4.28647 4.116481,4.286494 0 0 0 4.116443,4.286455 4.116481,4.286494 0 0 0 4.116444,-4.286455 z M 52.708117,52.808389 a 16.323972,16.99816 0 0 0 -4.164695,11.328059 16.323972,16.99816 0 0 0 3.606856,10.653323 c -0.214663,-0.129553 -0.404829,-0.254065 -0.708826,-0.459863 -0.762031,-0.515879 -0.986898,-1.383889 -1.790711,-2.341053 -0.803798,-0.957165 -1.762628,-2.046992 -2.100851,-2.606378 -0.338238,-0.559386 -0.662717,-0.971578 -1.804752,-2.488129 -0.895734,-1.189469 -1.317936,-1.812293 -2.225005,-2.939722 0.907069,-1.127428 1.329271,-1.750253 2.225005,-2.939721 1.142035,-1.516551 1.466514,-1.928743 1.804752,-2.488129 0.338223,-0.559386 1.297053,-1.649213 2.100851,-2.606378 0.803813,-0.957164 1.02868,-1.825174 1.790711,-2.341053 0.478322,-0.323824 0.791943,-0.510867 1.266665,-0.770956 z M 37.61338,45.660198 a 4.116481,4.286494 0 0 0 -4.116443,-4.28647 4.116481,4.286494 0 0 0 -4.116458,4.28647 4.116481,4.286494 0 0 0 4.116458,4.286455 4.116481,4.286494 0 0 0 4.116443,-4.286455 z m -1.135594,35.17876 a 4.116481,4.286494 0 0 0 -4.116459,-4.286454 4.116481,4.286494 0 0 0 -4.116443,4.286454 4.116481,4.286494 0 0 0 4.116443,4.28647 4.116481,4.286494 0 0 0 4.116459,-4.28647 z" />
    <ellipse
       style="fill:#ffffff;stroke-width:2.15263;paint-order:stroke markers fill"
       id="path11719-2-0"
       cx="59.561031"
       cy="-60.185261"
       rx="8.7207975"
       ry="8.3749084"
       transform="rotate(90)" />
    <path
       style="fill:#ffffff;stroke:#000000;stroke-width:0.106329px;stroke-linecap:butt;stroke-linejoin:miter;stroke-opacity:1"
       d="m 221.99827,50.576664 -14.85622,-3.305149 -17.31761,2.956202 -10.50411,11.529186 7.5232,6.947079 13.48505,6.060209 22.22753,-2.206145 8.43312,-2.671601 3.83258,-12.268222 z"
       id="path12728-6-7" />
    <path
       id="path11719-4-8"
       style="fill:#000000;fill-opacity:1;stroke:url(#radialGradient13635-4-7);stroke-width:4.19581;paint-order:stroke markers fill"
       d="m 155.83959,57.648194 c 0.003,-1.007469 0.0399,-1.744511 0.12837,-1.939273 0.35416,-0.778973 -0.20882,-2.206517 1.75693,-4.042103 1.96575,-1.835615 0.69443,-1.705139 3.84597,-3.068368 3.15156,-1.363228 3.40616,-1.686368 4.81877,-1.831391 1.41264,-0.145023 2.2205,-2.158875 2.48511,0.635973 0.2646,2.794833 0.85737,3.031064 0.0913,5.486127 -0.15112,0.484316 -0.2557,0.824235 -0.35982,1.157698 1.11057,0.155211 1.26512,0.699872 2.93445,1.402897 0.63612,0.267898 1.18886,0.618511 1.70279,1.035641 25.4551,-23.062983 64.80006,-0.142197 64.80006,-0.142197 l 5.75209,-2.521387 2.31394,-8.703683 -4.39303,-10.242842 -9.33125,-3.646466 -9.46659,2.457191 -14.5939,2.537927 c 0,0 -7.18659,-2.084385 -8.31471,-3.453831 -1.12809,-1.369461 -4.50831,-8.44874 -4.61973,-9.625521 -0.11141,-1.176781 0.63465,-9.867865 1.58171,-10.410681 0.94705,-0.542802 6.6453,-5.1379553 8.9055,-5.3699923 2.26021,-0.232036 9.26768,-1.54557 11.47017,-0.880518 2.2025,0.665052 6.9319,2.407422 8.28684,3.159487 1.35491,0.7520663 5.17692,4.9641363 5.65642,5.5090203 0.4795,0.544869 -9.58402,-4.80885 -9.58402,-4.80885 l -11.27114,-0.03094 c 0,0 -7.80121,3.474373 -8.32448,3.973682 -0.52327,0.499295 -1.15201,5.91065 -1.14007,7.543204 0.0119,1.632568 5.55299,8.935703 6.55574,8.981292 1.00278,0.04566 6.07221,0.861956 8.61694,-0.884534 2.54472,-1.746517 9.73727,-4.118806 12.95845,-4.746539 3.22119,-0.627747 7.41916,-2.98949 11.32873,-0.865897 3.90959,2.123594 7.88883,4.982534 9.67947,7.323661 1.79065,2.341128 2.98848,4.446173 3.63311,8.241693 0.64461,3.795519 2.05315,6.621499 1.25729,10.267845 -0.79585,3.646347 -2.28593,8.997611 -4.23774,10.980302 -0.22411,0.227663 -0.47486,0.457885 -0.74159,0.687883 a 8.3749081,8.7207963 0 0 1 0.84721,3.670622 c 1.8994,2.065867 3.35084,7.280809 4.13212,10.860371 0.79586,3.646332 -0.61268,6.472103 -1.25729,10.267623 -0.64463,3.79552 -1.84246,5.90056 -3.63311,8.24169 -1.79064,2.341137 -5.76988,5.20009 -9.67947,7.32367 -3.90957,2.12361 -8.10754,-0.23815 -11.32873,-0.86588 -3.22118,-0.62776 -10.41373,-2.999823 -12.95845,-4.746343 -2.54473,-1.746507 -7.61416,-0.930327 -8.61694,-0.884747 -1.00275,0.0455 -6.54381,7.34873 -6.55574,8.98129 -0.0119,1.63257 0.6168,7.04413 1.14007,7.54343 0.52327,0.49929 8.32448,3.97368 8.32448,3.97368 l 11.27114,-0.0312 c 0,0 10.06352,-5.35351 9.58402,-4.80862 -0.4795,0.54488 -4.30151,4.75673 -5.65642,5.50879 -1.35494,0.75207 -6.08434,2.49444 -8.28684,3.15947 -2.20249,0.66507 -9.20996,-0.64848 -11.47017,-0.8805 -2.2602,-0.23204 -7.95845,-4.82719 -8.9055,-5.37 -0.94706,-0.54281 -1.69312,-9.2339 -1.58171,-10.41068 0.1114,-1.17677 3.49164,-8.25607 4.61974,-9.62552 1.12811,-1.36946 8.31471,-3.45362 8.31471,-3.45362 l 14.59389,2.53772 9.46659,2.45717 9.33125,-3.64645 4.39303,-10.24284 -1.91262,-7.193974 a 8.3749081,8.7207963 0 0 1 -1.69729,0.185852 8.3749081,8.7207963 0 0 1 -6.44403,-3.151217 c -4.45856,2.283788 -15.96514,7.570572 -29.10635,8.814302 a 16.323972,16.99816 0 0 1 -3.48517,0.397127 16.323972,16.99816 0 0 1 -2.03267,-0.13313 c -9.62291,-0.007 -19.68052,-2.578396 -28.18773,-10.286033 -0.51393,0.41713 -1.06685,0.76752 -1.70299,1.035418 -1.66933,0.70301 -1.82388,1.247671 -2.93445,1.402897 0.10412,0.333448 0.2087,0.673396 0.35982,1.157713 0.766,2.455063 0.17322,2.691279 -0.0913,5.486127 -0.26463,2.794828 -1.07247,0.780981 -2.48511,0.635958 -1.41263,-0.145023 -1.66721,-0.468178 -4.81877,-1.831391 -3.15154,-1.363229 -1.88022,-1.232768 -3.84597,-3.068354 -1.96575,-1.8356 -1.40277,-3.262921 -1.75693,-4.041909 -0.22553,-0.496082 -0.11751,-4.49972 0.0449,-7.537284 -0.0986,-1.845105 -0.17753,-4.038964 -0.17339,-5.597802 z m 4.83586,5.597802 c 0,0 1.13407,3.086976 1.84036,3.159487 0.70632,0.07259 0.98888,0.101442 1.94987,0.497153 0.0293,0.0119 0.0573,0.02573 0.0863,0.03808 0.14368,-0.04433 0.34827,-0.173046 0.70964,-0.452441 1.32908,-1.027609 1.09023,-2.042664 1.09023,-2.042664 0.2806,-0.409083 0.56519,-0.807114 0.85169,-1.199672 -0.2865,-0.392558 -0.57109,-0.790604 -0.85169,-1.199672 0,0 0.23885,-1.01507 -1.09023,-2.042679 -0.36151,-0.279514 -0.56617,-0.408012 -0.70984,-0.452233 -0.029,0.0119 -0.0568,0.02588 -0.0861,0.03793 -0.96098,0.395712 -1.24355,0.424657 -1.94986,0.497168 -0.7063,0.07244 -1.84036,3.159487 -1.84036,3.159487 z M 173.79714,43.91676 a 4.116481,4.286494 0 0 1 4.11644,-4.286454 4.116481,4.286494 0 0 1 4.11645,4.286454 4.116481,4.286494 0 0 1 -4.11645,4.286678 4.116481,4.286494 0 0 1 -4.11644,-4.286678 z m 0.5678,38.13504 a 4.116481,4.286494 0 0 1 4.11645,-4.286472 4.116481,4.286494 0 0 1 4.11644,4.286472 4.116481,4.286494 0 0 1 -4.11644,4.28666 4.116481,4.286494 0 0 1 -4.11645,-4.28666 z m 4.99256,-18.805595 c 0.9671,0.843794 1.96218,1.527855 3.96382,3.364408 3.28089,3.010299 2.72979,2.80514 4.05885,3.832749 0.62466,0.482963 1.20168,0.865629 1.85218,1.308595 a 16.323972,16.99816 0 0 1 -2.09211,-8.324139 16.323972,16.99816 0 0 1 2.45252,-8.939111 c -0.80167,0.552872 -1.47855,0.992387 -2.21259,1.559924 -1.32906,1.027609 -0.77796,0.822658 -4.05885,3.832958 -2.00171,1.836612 -2.9967,2.520792 -3.96382,3.364616 z m 20.84192,-22.87673 a 4.116481,4.286494 0 0 1 4.11646,-4.286455 4.116481,4.286494 0 0 1 4.11646,4.286455 4.116481,4.286494 0 0 1 -4.11646,4.286455 4.116481,4.286494 0 0 1 -4.11646,-4.286455 z m 0.28392,45.525455 a 4.116481,4.286494 0 0 1 4.11644,-4.28647 4.116481,4.286494 0 0 1 4.11645,4.28647 4.116481,4.286494 0 0 1 -4.11645,4.28645 4.116481,4.286494 0 0 1 -4.11644,-4.28645 z m 15.1401,-33.795171 a 16.323972,16.99816 0 0 1 4.1647,11.328059 16.323972,16.99816 0 0 1 -3.60686,10.653323 c 0.21466,-0.129553 0.40483,-0.254065 0.70883,-0.459863 0.76203,-0.515879 0.98689,-1.383889 1.79071,-2.341053 0.8038,-0.957165 1.76263,-2.046992 2.10085,-2.606378 0.33824,-0.559386 0.66272,-0.971578 1.80475,-2.488129 0.89573,-1.189469 1.31794,-1.812293 2.22501,-2.939722 -0.90707,-1.127428 -1.32928,-1.750253 -2.22501,-2.939721 -1.14203,-1.516551 -1.46651,-1.928743 -1.80475,-2.488129 -0.33822,-0.559386 -1.29705,-1.649213 -2.10085,-2.606378 -0.80382,-0.957164 -1.02868,-1.825174 -1.79071,-2.341053 -0.47833,-0.323824 -0.79194,-0.510867 -1.26667,-0.770956 z m 15.09474,-7.148191 a 4.116481,4.286494 0 0 1 4.11644,-4.28647 4.116481,4.286494 0 0 1 4.11646,4.28647 4.116481,4.286494 0 0 1 -4.11646,4.286455 4.116481,4.286494 0 0 1 -4.11644,-4.286455 z m 1.13559,35.17876 a 4.116481,4.286494 0 0 1 4.11646,-4.286454 4.116481,4.286494 0 0 1 4.11644,4.286454 4.116481,4.286494 0 0 1 -4.11644,4.286472 4.116481,4.286494 0 0 1 -4.11646,-4.286472 z" />
    <ellipse
       style="fill:#ffffff;stroke-width:2.15263;paint-order:stroke markers fill"
       id="path11719-2-0-2"
       cx="60.381596"
       cy="198.97107"
       rx="8.7207975"
       ry="8.3749084"
       transform="matrix(0,1,1,0,0,0)" />
  </g>
</svg>
