<?xml version="1.0" encoding="UTF-8" standalone="no"?>
<!-- Created with Inkscape (http://www.inkscape.org/) -->

<svg
   version="1.1"
   id="svg4775"
   width="1632"
   height="635"
   viewBox="0 0 1632 635"
   sodipodi:docname="SoulSymphonyLogoCN.svg"
   inkscape:version="1.2.2 (732a01da63, 2022-12-09)"
   xmlns:inkscape="http://www.inkscape.org/namespaces/inkscape"
   xmlns:sodipodi="http://sodipodi.sourceforge.net/DTD/sodipodi-0.dtd"
   xmlns="http://www.w3.org/2000/svg"
   xmlns:svg="http://www.w3.org/2000/svg">
  <defs
     id="defs4779" />
  <sodipodi:namedview
     id="namedview4777"
     pagecolor="#ffffff"
     bordercolor="#000000"
     borderopacity="0.25"
     inkscape:showpageshadow="2"
     inkscape:pageopacity="0.0"
     inkscape:pagecheckerboard="0"
     inkscape:deskcolor="#d1d1d1"
     showgrid="false"
     inkscape:zoom="0.54534314"
     inkscape:cx="83.433708"
     inkscape:cy="267.72135"
     inkscape:window-width="1920"
     inkscape:window-height="1009"
     inkscape:window-x="-32000"
     inkscape:window-y="-32000"
     inkscape:window-maximized="0"
     inkscape:current-layer="layer1" />
  <g
     inkscape:groupmode="layer"
     inkscape:label="Image"
     id="g4781" />
  <g
     inkscape:groupmode="layer"
     id="layer1"
     inkscape:label="Image 1">
    <path
       sodipodi:type="star"
       style="fill:#ffffff;stroke-width:16.1197;stroke-opacity:0.941176;paint-order:stroke fill markers"
       id="path4946"
       inkscape:flatsided="false"
       sodipodi:sides="5"
       sodipodi:cx="800.66736"
       sodipodi:cy="160.78178"
       sodipodi:r1="130.1868"
       sodipodi:r2="112.74508"
       sodipodi:arg1="0.99108083"
       sodipodi:arg2="1.6193994"
       inkscape:rounded="-0.5"
       inkscape:randomized="0"
       d="m 871.98186,269.69847 c 32.16001,-21.05715 -115.18718,1.82766 -76.7921,3.69525 38.39508,1.86759 -106.03546,-35.20968 -76.07094,-11.13071 29.96454,24.07897 -37.333,-108.98474 -27.24445,-71.89173 10.08855,37.09301 0.71964,-111.72611 -12.92127,-75.78734 -13.64092,35.93878 92.11411,-69.183934 59.95409,-48.126781 -32.16001,21.057151 106.48023,-33.840846 68.08515,-35.708436 -38.39508,-1.86759 94.26266,66.226716 64.29813,42.147741 -29.96453,-24.078971 65.08875,90.811316 55.00021,53.718306 -10.08855,-37.093007 -33.85659,110.1143 -20.21567,74.17552 13.64091,-35.93877 -66.25317,89.96533 -34.09315,68.90818 z" />
    <path
       sodipodi:type="star"
       style="fill:#ffeeaa;stroke-width:16.1197;stroke-opacity:0.94117647;paint-order:stroke fill markers;stroke:#0088aa"
       id="path5002"
       inkscape:flatsided="false"
       sodipodi:sides="5"
       sodipodi:cx="830.48975"
       sodipodi:cy="181.52782"
       sodipodi:r1="1.3883603"
       sodipodi:r2="138.83603"
       sodipodi:arg1="-1.5707963"
       sodipodi:arg2="-0.94247777"
       inkscape:rounded="0.65"
       inkscape:randomized="0"
       d="m 830.48975,180.13946 c 89.5149,0 9.18669,-163.547892 81.60577,-110.932348 72.41908,52.615548 -107.94699,26.757943 -80.28536,111.891678 27.66162,85.13374 158.38212,-41.80201 130.7205,43.33172 -27.66163,85.13374 -58.80577,-94.39503 -131.22486,-41.77949 -72.41908,52.61554 88.69885,137.71283 -0.81606,137.71283 -89.5149,-1e-5 71.60303,-85.09728 -0.81605,-137.71283 C 757.25461,130.03548 726.11046,309.56424 698.44883,224.43051 670.78721,139.29677 801.50771,266.23252 829.16934,181.09879 856.83097,95.965056 676.4649,121.82265 748.88398,69.207108 821.30306,16.591568 740.97484,180.13945 830.48975,180.13946 Z"
       inkscape:transform-center-y="-11.717762" />
  </g>
</svg>
