<?xml version="1.0" encoding="UTF-8" standalone="no"?>
<!-- Created with Inkscape (http://www.inkscape.org/) -->

<svg
   width="167.62106mm"
   height="164.91844mm"
   viewBox="0 0 167.62106 164.91844"
   version="1.1"
   id="svg27236"
   inkscape:version="1.1 (c68e22c387, 2021-05-23)"
   sodipodi:docname="spinning_symbol_00.svg"
   xmlns:inkscape="http://www.inkscape.org/namespaces/inkscape"
   xmlns:sodipodi="http://sodipodi.sourceforge.net/DTD/sodipodi-0.dtd"
   xmlns="http://www.w3.org/2000/svg"
   xmlns:svg="http://www.w3.org/2000/svg">
  <sodipodi:namedview
     id="namedview27238"
     pagecolor="#ffffff"
     bordercolor="#999999"
     borderopacity="1"
     inkscape:pageshadow="0"
     inkscape:pageopacity="0"
     inkscape:pagecheckerboard="0"
     inkscape:document-units="mm"
     showgrid="false"
     fit-margin-top="0"
     fit-margin-left="0"
     fit-margin-right="0"
     fit-margin-bottom="0"
     inkscape:zoom="0.74118967"
     inkscape:cx="239.47986"
     inkscape:cy="497.17368"
     inkscape:window-width="1920"
     inkscape:window-height="1017"
     inkscape:window-x="-8"
     inkscape:window-y="-8"
     inkscape:window-maximized="1"
     inkscape:current-layer="layer1" />
  <defs
     id="defs27233" />
  <g
     inkscape:label="レイヤー 1"
     inkscape:groupmode="layer"
     id="layer1"
     transform="translate(-17.245567,-16.956181)">
    <path
       id="path27273"
       style="fill:#00ffff;fill-opacity:1;stroke:#ff006d;stroke-width:4.99999;stroke-linecap:round;stroke-linejoin:bevel;stroke-opacity:1;paint-order:stroke markers fill"
       d="m 158.50918,19.456176 c -0.62393,37.184596 -4.33595,74.29076 -3.36,111.502414 0.539,13.32614 -1.43629,26.60729 -0.98525,39.90347 1.47443,12.77323 15.95172,4.53119 20.27027,-1.94365 6.26343,-4.85386 -1.89478,-9.52276 -4.67282,-2.84316 -2.39038,5.83983 -13.23309,10.49091 -10.95616,0.11841 1.47162,-19.7384 1.32166,-39.54624 0.95091,-59.33454 6.54464,-4.20916 10.40581,-11.531335 16.52047,-16.290825 4.46482,-0.838389 9.79808,-11.418038 2.45711,-8.53851 -6.63467,5.039305 -11.66483,12.05714 -18.07071,17.184799 -1.27963,-5.865547 0.46127,-13.094928 0.18775,-19.513514 0.66314,-5.51115 -0.38909,-15.179782 1.33274,-18.073662 6.28358,-0.930668 10.45844,-8.800889 16.13675,-12.158022 3.64837,-7.632548 -5.74626,-4.317781 -7.64305,0.170672 -4.09986,4.993213 -11.36388,9.600017 -8.50627,-0.334715 0.57315,-9.942851 1.10584,-19.890689 1.30798,-29.849156 -1.65657,-4e-6 -3.31315,-7e-6 -4.96972,-1.1e-5 z m -69.39059,1.853117 c -0.623521,3.800024 -2.189037,-0.06746 -5.783087,2.844929 -9.490159,5.326775 -9.812898,22.041884 1.194612,25.861732 8.955438,4.460113 3.072681,16.682397 4.205412,24.740221 -3.785503,13.953379 12.548463,12.875615 21.407923,10.095107 4.15725,0.180033 13.7406,0.856456 7.80056,-5.456095 -7.82578,-1.802112 -17.88721,6.082016 -24.530066,-0.08736 2.464556,-8.988458 -2.5183,-21.983923 2.078656,-28.52728 10.70649,-3.961298 11.25603,-19.59635 2.846344,-26.203987 -2.497409,-2.232981 -5.881157,-3.396653 -9.220354,-3.267269 z m 30.34337,58.881676 -0.001,-0.0279 z M 89.262766,26.228373 C 101.34068,25.659506 103.19299,47.580564 90.058045,46.800395 79.804012,46.453176 77.587108,30.93089 87.399422,27.623161 l 1.073092,-0.721747 z m -22.549527,3.896402 c -5.450372,1.813458 -20.410384,-2.198933 -18.75694,6.221223 5.621306,2.396835 17.667969,-6.429658 18.865089,3.105736 -1.540937,9.769074 0.261134,19.508534 0.07381,29.347892 0.268999,24.474732 -1.182166,48.931624 -0.590154,73.410444 -0.14204,11.60715 0.242118,23.48108 -1.315445,34.88095 8.954288,6.15124 4.53389,-9.17255 5.846312,-14.17703 0.65863,-23.71735 -0.495907,-47.4478 0.700306,-71.160411 0.692206,-18.994149 -0.493285,-37.987756 -0.348826,-56.986192 -0.19415,-2.276868 -1.907783,-4.831592 -4.474155,-4.642612 z m -20.697443,3.428214 c -9.194404,0.876452 -0.28207,13.106011 -1.946771,18.970114 2.433642,28.556756 0.967172,57.391917 -2.896757,85.746477 -3.013377,14.53846 -11.330661,27.44323 -21.577138,37.97122 3.32868,9.15669 9.552833,-4.33193 12.774806,-7.70589 10.189454,-13.70903 15.387527,-30.61139 15.434627,-47.62721 0.938138,-10.4414 14.353133,1.42106 18.106535,-6.50065 -2.693862,-7.09123 -19.709456,3.17346 -17.204905,-8.37115 1.786883,-18.238522 1.590287,-36.803688 -0.03889,-55.097001 -0.48827,-5.854458 -1.463105,-11.637305 -2.651505,-17.38591 z m 20.516058,1.504302 0.462326,0.06627 z M 113.23495,57.28074 c -7.13648,-3.271309 -8.38191,8.463274 -0.64893,5.088879 6.81288,1.193161 17.83467,-2.492671 21.76714,2.832592 -1.38678,9.280044 -0.88513,18.434544 0.007,27.757328 -0.6274,7.305031 4.84956,21.671471 -7.24297,18.503121 -10.06532,-0.34431 -20.0975,-1.84042 -30.180995,-1.20349 -7.439732,-2.6719 -18.670153,-0.80647 -14.308723,9.46834 0.324834,7.8492 -1.724757,24.04394 10.829029,20.24187 14.944609,-0.97 29.890359,-2.65559 44.887689,-2.18296 4.91012,9.36109 -7.47781,17.10947 -14.69231,20.86026 -11.10527,5.17919 -24.086712,5.03553 -35.664309,1.55335 -3.85161,9.00288 12.638459,6.16933 17.866639,7.25572 15.60883,-0.25726 32.25461,-8.19843 38.79567,-22.97422 3.47697,-11.27659 -9.0354,-13.51875 -17.18266,-11.52707 -11.17228,0.49543 -22.30311,1.71233 -33.485315,2.01495 -10.448613,2.36111 -5.360936,-14.1804 -6.274751,-19.98955 6.880448,-1.15498 14.257426,1.22608 21.442936,0.0475 9.16205,0.3742 18.39694,2.37154 27.53476,0.63951 7.24582,-7.9192 0.69093,-19.584311 2.2513,-29.119247 -2.43764,-9.057941 2.11032,-19.171901 -0.6819,-27.375596 -7.45862,-3.82712 -16.83878,0.01054 -25.01914,-1.891267 z m 23.09213,5.639449 0.1979,0.0326 z m -77.017522,4.228684 c -3.68216,-1.721144 -13.612502,2.078054 -7.70297,5.120294 4.021227,0.597669 9.851751,0.704324 7.70297,-5.120294 z m 34.083706,14.283881 0.02479,0.321945 z m -8.029482,32.454866 0.0088,0.0161 z m 3.36672,22.18418 0.171047,0.42013 z" />
  </g>
</svg>
