{
	"asset":{
		"generator":"Khronos glTF Blender I/O v3.5.30",
		"version":"2.0"
	},
	"scene":0,
	"scenes":[
		{
			"name":"Scene",
			"nodes":[
				0,
				1
			]
		}
	],
	"nodes":[
		{
			"mesh":0,
			"name":"base",
			"translation":[
				0,
				0.6000000238418579,
				0
			]
		},
		{
			"mesh":1,
			"name":"flower",
			"translation":[
				0,
				0.6000000238418579,
				0
			]
		}
	],
	"materials":[
		{
			"alphaMode":"BLEND",
			"name":"Material.001",
			"pbrMetallicRoughness":{
				"baseColorTexture":{
					"index":0
				},
				"metallicFactor":0,
				"roughnessFactor":0.5
			}
		},
		{
			"alphaMode":"BLEND",
			"doubleSided":true,
			"name":"Material.002",
			"pbrMetallicRoughness":{
				"baseColorTexture":{
					"index":1
				},
				"metallicFactor":0,
				"roughnessFactor":0.5
			}
		}
	],
	"meshes":[
		{
			"name":"base",
			"primitives":[
				{
					"attributes":{
						"POSITION":0,
						"TEXCOORD_0":1,
						"NORMAL":2
					},
					"indices":3,
					"material":0
				}
			]
		},
		{
			"name":"flower",
			"primitives":[
				{
					"attributes":{
						"POSITION":4,
						"TEXCOORD_0":5,
						"NORMAL":6
					},
					"indices":7,
					"material":1
				}
			]
		}
	],
	"textures":[
		{
			"sampler":0,
			"source":0
		},
		{
			"sampler":0,
			"source":1
		}
	],
	"images":[
		{
			"bufferView":4,
			"mimeType":"image/png",
			"name":"base00"
		},
		{
			"bufferView":9,
			"mimeType":"image/png",
			"name":"effect01"
		}
	],
	"accessors":[
		{
			"bufferView":0,
			"componentType":5126,
			"count":144,
			"max":[
				4,
				-0.6000000238418579,
				4
			],
			"min":[
				-4,
				-0.6187487840652466,
				-4
			],
			"type":"VEC3"
		},
		{
			"bufferView":1,
			"componentType":5126,
			"count":144,
			"type":"VEC2"
		},
		{
			"bufferView":2,
			"componentType":5126,
			"count":144,
			"type":"VEC3"
		},
		{
			"bufferView":3,
			"componentType":5123,
			"count":216,
			"type":"SCALAR"
		},
		{
			"bufferView":5,
			"componentType":5126,
			"count":384,
			"max":[
				4.69384765625,
				1.7590874433517456,
				4.693847179412842
			],
			"min":[
				-4.69384765625,
				-0.6051980257034302,
				-4.693847179412842
			],
			"type":"VEC3"
		},
		{
			"bufferView":6,
			"componentType":5126,
			"count":384,
			"type":"VEC2"
		},
		{
			"bufferView":7,
			"componentType":5126,
			"count":384,
			"type":"VEC3"
		},
		{
			"bufferView":8,
			"componentType":5123,
			"count":576,
			"type":"SCALAR"
		}
	],
	"bufferViews":[
		{
			"buffer":0,
			"byteLength":1728,
			"byteOffset":0,
			"target":34962
		},
		{
			"buffer":0,
			"byteLength":1152,
			"byteOffset":1728,
			"target":34962
		},
		{
			"buffer":0,
			"byteLength":1728,
			"byteOffset":2880,
			"target":34962
		},
		{
			"buffer":0,
			"byteLength":432,
			"byteOffset":4608,
			"target":34963
		},
		{
			"buffer":0,
			"byteLength":407196,
			"byteOffset":5040
		},
		{
			"buffer":0,
			"byteLength":4608,
			"byteOffset":412236,
			"target":34962
		},
		{
			"buffer":0,
			"byteLength":3072,
			"byteOffset":416844,
			"target":34962
		},
		{
			"buffer":0,
			"byteLength":4608,
			"byteOffset":419916,
			"target":34962
		},
		{
			"buffer":0,
			"byteLength":1152,
			"byteOffset":424524,
			"target":34963
		},
		{
			"buffer":0,
			"byteLength":128402,
			"byteOffset":425676
		}
	],
	"samplers":[
		{
			"magFilter":9729,
			"minFilter":9987
		}
	],
	"buffers":[
		{
			"byteLength":554080,
			"uri":"data:application/octet-stream;base64,"
		}
	]
}
